<?xml version="1.0" encoding="UTF-8"?>
<svg version="1.1" xmlns="http://www.w3.org/2000/svg" width="500" height="500">
<path d="M0 0 C0.99 0.66 1.98 1.32 3 2 C3 2.66 3 3.32 3 4 C1.68 4.66 0.36 5.32 -1 6 C0.5778125 5.62875 0.5778125 5.62875 2.1875 5.25 C6 5 6 5 8.51171875 6.6328125 C11.12409276 9.11805371 12.74830214 11.55779777 14.625 14.625 C17.37155448 18.60439848 17.37155448 18.60439848 21.43359375 20.94921875 C23.24612676 21.19968765 25.06500138 21.40678782 26.88671875 21.578125 C47.95486795 24.43303104 66.25992069 42.18000195 79 58 C115.26803447 106.71707678 131.94678282 171.72284532 123.69140625 231.88671875 C120.18483049 254.01838543 111.91849531 274.68723282 97.375 291.875 C96.88515625 292.46796875 96.3953125 293.0609375 95.890625 293.671875 C94.64000085 295.15485555 93.32469174 296.5827901 92 298 C91.34 298 90.68 298 90 298 C90 298.66 90 299.32 90 300 C88.25 301.5078125 88.25 301.5078125 86 303.125 C85.2575 303.66382813 84.515 304.20265625 83.75 304.7578125 C83.1725 305.16773438 82.595 305.57765625 82 306 C82.87567627 306.15033691 82.87567627 306.15033691 83.76904297 306.30371094 C109.84437007 310.84437007 109.84437007 310.84437007 115 316 C114.84790918 318.96577102 114.55528352 320.48041328 112.359375 322.53515625 C77.52889209 344.16004216 3.56728303 334.64238545 -36 331 C-37.2080127 330.89284668 -38.41602539 330.78569336 -39.66064453 330.67529297 C-72.08085303 327.72565938 -72.08085303 327.72565938 -83 320 C-83.0625 317.75 -83.0625 317.75 -82 315 C-73.70304968 309.49436707 -62.69244835 307.92309032 -53 307 C-52.34 306.67 -51.68 306.34 -51 306 C-51 305.34 -51 304.68 -51 304 C-51.57492188 303.73832031 -52.14984375 303.47664063 -52.7421875 303.20703125 C-70.26578802 293.83887803 -80.90587007 271.17169948 -87.02734375 253.24609375 C-88.98091985 246.72632774 -90.36227823 240.39809544 -91.0625 233.625 C-91.1860083 232.4642395 -91.1860083 232.4642395 -91.31201172 231.2800293 C-97.38690886 171.74002259 -84.77864942 114.73828653 -51 65 C-52.2684375 65.495 -52.2684375 65.495 -53.5625 66 C-57.25397569 67.07388384 -60.17544681 67.2941964 -64 67 C-64.66 66.34 -65.32 65.68 -66 65 C-65.88671875 63.0078125 -65.88671875 63.0078125 -65 61 C-63.14453125 59.8046875 -63.14453125 59.8046875 -60.8125 58.875 C-59.59820312 58.38 -59.59820312 58.38 -58.359375 57.875 C-56.44286338 57.16424072 -54.50517207 56.51078359 -52.5625 55.875 C-49.87300043 55.16678256 -49.87300043 55.16678256 -48 53 C-48.76183594 53.28875 -49.52367187 53.5775 -50.30859375 53.875 C-56.85141101 56.22747362 -62.05416566 57.46305562 -69 57 C-70.78694419 50.29895929 -72.47990915 42.89244403 -71 36 C-68.47265625 34.1484375 -68.47265625 34.1484375 -66 33 C-67.65 32.67 -69.3 32.34 -71 32 C-69.64712489 27.57240873 -68.04076435 25.32129016 -64 23 C-52.43939425 21.34848489 -41.49037973 27.04868796 -32.40234375 33.7421875 C-30.03218524 35.26714298 -30.03218524 35.26714298 -27.19140625 34.6953125 C-26.46824219 34.46585938 -25.74507813 34.23640625 -25 34 C-24.63648438 32.75605469 -24.27296875 31.51210937 -23.8984375 30.23046875 C-17.20411092 7.84631425 -17.20411092 7.84631425 -10.0625 1.3125 C-6.42260161 -0.24745645 -3.92307191 -0.44412135 0 0 Z M-63 31 C-63 31.33 -63 31.66 -63 32 C-61.35 32 -59.7 32 -58 32 C-58 31.67 -58 31.34 -58 31 C-59.65 31 -61.3 31 -63 31 Z M11.3515625 38.1640625 C7.3451128 39.58828216 3.17780254 40.25863629 -1 41 C-1 41.99 -1 42.98 -1 44 C1.15899069 45.61506556 1.15899069 45.61506556 3.9375 47.125 C11.39543504 51.66712301 17.85684268 57.20185193 22 65 C22.6875 68.3125 22.6875 68.3125 23 71 C22.319375 70.566875 21.63875 70.13375 20.9375 69.6875 C17.99571725 67.89592141 17.99571725 67.89592141 14.5625 66.6875 C10.32665679 64.68104795 8.21418502 62.36368199 5 59 C4.34 59 3.68 59 3 59 C1.35 62.3 -0.3 65.6 -2 69 C-5.17715092 64.76379878 -7.68592189 60.38177454 -10.28125 55.77734375 C-11.71690236 53.45746005 -12.88122968 51.69383588 -15 50 C-17.39802408 50.15471123 -19.05933621 51.02637165 -21.25 52 C-23.52066373 54.59504426 -23.60310252 56.66566982 -23.46875 60.046875 C-22.35884158 67.03929803 -20.16665117 74.66669767 -17 81 C-17.81984375 80.57847656 -18.6396875 80.15695313 -19.484375 79.72265625 C-20.56203125 79.17480469 -21.6396875 78.62695312 -22.75 78.0625 C-23.81734375 77.51722656 -24.8846875 76.97195312 -25.984375 76.41015625 C-28.38445885 75.28783725 -30.41856752 74.49498341 -33 74 C-33.268125 75.134375 -33.53625 76.26875 -33.8125 77.4375 C-34.4003125 79.2009375 -34.4003125 79.2009375 -35 81 C-35.99 81.33 -36.98 81.66 -38 82 C-38 83.32 -38 84.64 -38 86 C-39.65 86.66 -41.3 87.32 -43 88 C-43.33 86.35 -43.66 84.7 -44 83 C-45.33895632 84.66215268 -46.67130142 86.32963607 -48 88 C-48.46148437 88.55558594 -48.92296875 89.11117187 -49.3984375 89.68359375 C-51.6099801 92.88223951 -53.18137461 96.28977433 -54.8125 99.8125 C-55.33807495 100.94147705 -55.33807495 100.94147705 -55.87426758 102.09326172 C-59.19151501 109.29335975 -62.20954339 116.58010391 -65 124 C-65.41894531 125.0725 -65.83789062 126.145 -66.26953125 127.25 C-81.66945705 169.48979648 -84.99152152 222.5924594 -66.1875 264.09765625 C-59.88567482 277.18887851 -50.55559406 288.56418497 -38 296 C-37.16621826 296.52327881 -36.33243652 297.04655762 -35.47338867 297.58569336 C-26.76509566 302.55953548 -19.01796686 302.8340843 -9.3125 302.5625 C-7.79688789 302.54059314 -6.28126228 302.51960171 -4.765625 302.49951172 C12.24889291 303.03563843 12.24889291 303.03563843 27 297 C27.28411667 293.82088736 27.28411667 293.82088736 27.1875 290.125 C27.18105469 289.46040771 27.17460937 288.79581543 27.16796875 288.11108398 C27.07532353 282.04933614 26.62874938 276.02925742 26 270 C24.89785156 269.98582031 23.79570312 269.97164062 22.66015625 269.95703125 C2.90271524 269.4432236 -14.01794234 264.33413165 -28.68359375 250.4453125 C-41.64006909 236.76781914 -46.50320493 222.23056919 -46.18359375 203.63671875 C-45.30792048 186.29093555 -37.58762686 170.91134189 -25 159 C-9.22753784 146.89724783 7.60521732 143.84758159 26.9453125 145.20703125 C39.33997898 146.89048595 51.00166727 153.52807796 60 162 C60.63292969 162.59167969 61.26585937 163.18335938 61.91796875 163.79296875 C73.09762298 175.36748935 78 192.23756747 78 208 C77.13575852 220.80157698 74.60918689 232.9992849 67.26953125 243.68359375 C64.06631167 249.52823747 64.69846308 257.01957814 64.48242188 263.54296875 C64.16315304 270.7596493 64.16315304 270.7596493 62 274 C59.125 273.75 59.125 273.75 56 273 C54.10177787 270.09993841 53.4971433 267.12734937 52.875 263.75 C52.70742188 262.85796875 52.53984375 261.9659375 52.3671875 261.046875 C52.24601563 260.37140625 52.12484375 259.6959375 52 259 C50.31301918 259.61344757 48.65172812 260.29713697 47 261 C45.783125 261.45375 44.56625 261.9075 43.3125 262.375 C40.87652897 263.82599144 40.11840314 264.68529693 39.109375 267.3671875 C37.51018215 275.7972184 37.80482633 284.45573043 38 293 C42.14740808 294.38246936 43.68851996 293.00355569 47.5625 291.125 C48.71878906 290.57070313 49.87507813 290.01640625 51.06640625 289.4453125 C52.71287779 288.63413478 54.35832334 287.82083833 56 287 C55.938125 285.72125 55.87625 284.4425 55.8125 283.125 C55.70703125 280.9453125 55.70703125 280.9453125 56 279 C59.8503105 276.43312633 61.58569763 277.16711276 66 278 C66 277.34 66 276.68 66 276 C66.7321875 275.7834375 67.464375 275.566875 68.21875 275.34375 C76.07991024 271.54566134 81.97319834 259.90976044 85 252 C99.44016889 210.21705414 94.08762363 156.47449468 78 116 C77.6704834 115.17000488 77.3409668 114.34000977 77.00146484 113.48486328 C67.03318176 88.78465418 54.20535106 66.50818221 36 47 C34.12521644 44.87428938 32.26659968 42.73546252 30.41015625 40.59375 C27.15263144 36.91211531 25.29257314 36.40570166 20.4921875 35.9609375 C17.12216036 36.01375924 14.47269852 36.96192884 11.3515625 38.1640625 Z M-45 50 C-45.33 50.66 -45.66 51.32 -46 52 C-45.01 51.67 -44.02 51.34 -43 51 C-43.66 50.67 -44.32 50.34 -45 50 Z M15 62 C15.33 63.65 15.66 65.3 16 67 C16.66 66.67 17.32 66.34 18 66 C17.34 64.68 16.68 63.36 16 62 C15.67 62 15.34 62 15 62 Z " fill="#FDB001" transform="translate(236,76)"/>
<path d="M0 0 C0.99 0.66 1.98 1.32 3 2 C3 2.66 3 3.32 3 4 C1.68 4.66 0.36 5.32 -1 6 C0.5778125 5.62875 0.5778125 5.62875 2.1875 5.25 C6 5 6 5 8.51171875 6.6328125 C11.12409276 9.11805371 12.74830214 11.55779777 14.625 14.625 C17.37155448 18.60439848 17.37155448 18.60439848 21.43359375 20.94921875 C23.24612676 21.19968765 25.06500138 21.40678782 26.88671875 21.578125 C47.95486795 24.43303104 66.25992069 42.18000195 79 58 C115.26803447 106.71707678 131.94678282 171.72284532 123.69140625 231.88671875 C120.18483049 254.01838543 111.91849531 274.68723282 97.375 291.875 C96.88515625 292.46796875 96.3953125 293.0609375 95.890625 293.671875 C94.64000085 295.15485555 93.32469174 296.5827901 92 298 C91.34 298 90.68 298 90 298 C90 298.66 90 299.32 90 300 C88.25 301.5078125 88.25 301.5078125 86 303.125 C85.2575 303.66382813 84.515 304.20265625 83.75 304.7578125 C83.1725 305.16773438 82.595 305.57765625 82 306 C82.87567627 306.15033691 82.87567627 306.15033691 83.76904297 306.30371094 C109.84437007 310.84437007 109.84437007 310.84437007 115 316 C114.84790918 318.96577102 114.55528352 320.48041328 112.359375 322.53515625 C77.52889209 344.16004216 3.56728303 334.64238545 -36 331 C-37.2080127 330.89284668 -38.41602539 330.78569336 -39.66064453 330.67529297 C-72.08085303 327.72565938 -72.08085303 327.72565938 -83 320 C-83.0625 317.75 -83.0625 317.75 -82 315 C-73.70304968 309.49436707 -62.69244835 307.92309032 -53 307 C-52.34 306.67 -51.68 306.34 -51 306 C-51 305.34 -51 304.68 -51 304 C-51.57492188 303.73832031 -52.14984375 303.47664063 -52.7421875 303.20703125 C-70.26578802 293.83887803 -80.90587007 271.17169948 -87.02734375 253.24609375 C-88.98091985 246.72632774 -90.36227823 240.39809544 -91.0625 233.625 C-91.1860083 232.4642395 -91.1860083 232.4642395 -91.31201172 231.2800293 C-97.38690886 171.74002259 -84.77864942 114.73828653 -51 65 C-52.2684375 65.495 -52.2684375 65.495 -53.5625 66 C-57.25397569 67.07388384 -60.17544681 67.2941964 -64 67 C-64.66 66.34 -65.32 65.68 -66 65 C-65.88671875 63.0078125 -65.88671875 63.0078125 -65 61 C-63.14453125 59.8046875 -63.14453125 59.8046875 -60.8125 58.875 C-59.59820312 58.38 -59.59820312 58.38 -58.359375 57.875 C-56.44286338 57.16424072 -54.50517207 56.51078359 -52.5625 55.875 C-49.87300043 55.16678256 -49.87300043 55.16678256 -48 53 C-48.76183594 53.28875 -49.52367187 53.5775 -50.30859375 53.875 C-56.85141101 56.22747362 -62.05416566 57.46305562 -69 57 C-70.78694419 50.29895929 -72.47990915 42.89244403 -71 36 C-68.47265625 34.1484375 -68.47265625 34.1484375 -66 33 C-67.65 32.67 -69.3 32.34 -71 32 C-69.64712489 27.57240873 -68.04076435 25.32129016 -64 23 C-52.43939425 21.34848489 -41.49037973 27.04868796 -32.40234375 33.7421875 C-30.03218524 35.26714298 -30.03218524 35.26714298 -27.19140625 34.6953125 C-26.46824219 34.46585938 -25.74507813 34.23640625 -25 34 C-24.63648438 32.75605469 -24.27296875 31.51210937 -23.8984375 30.23046875 C-17.20411092 7.84631425 -17.20411092 7.84631425 -10.0625 1.3125 C-6.42260161 -0.24745645 -3.92307191 -0.44412135 0 0 Z M-63 31 C-63 31.33 -63 31.66 -63 32 C-61.35 32 -59.7 32 -58 32 C-58 31.67 -58 31.34 -58 31 C-59.65 31 -61.3 31 -63 31 Z M11.2109375 38.1640625 C7.27744071 39.65128567 3.12940596 40.26722441 -1 41 C-1 41.99 -1 42.98 -1 44 C1.15899069 45.61506556 1.15899069 45.61506556 3.9375 47.125 C11.39543504 51.66712301 17.85684268 57.20185193 22 65 C22.6875 68.3125 22.6875 68.3125 23 71 C22.319375 70.566875 21.63875 70.13375 20.9375 69.6875 C17.99571725 67.89592141 17.99571725 67.89592141 14.5625 66.6875 C10.32665679 64.68104795 8.21418502 62.36368199 5 59 C4.34 59 3.68 59 3 59 C1.35 62.3 -0.3 65.6 -2 69 C-5.17715092 64.76379878 -7.68592189 60.38177454 -10.28125 55.77734375 C-11.71690236 53.45746005 -12.88122968 51.69383588 -15 50 C-17.39802408 50.15471123 -19.05933621 51.02637165 -21.25 52 C-23.52066373 54.59504426 -23.60310252 56.66566982 -23.46875 60.046875 C-22.35884158 67.03929803 -20.16665117 74.66669767 -17 81 C-17.81984375 80.57847656 -18.6396875 80.15695313 -19.484375 79.72265625 C-20.56203125 79.17480469 -21.6396875 78.62695312 -22.75 78.0625 C-23.81734375 77.51722656 -24.8846875 76.97195312 -25.984375 76.41015625 C-28.38445885 75.28783725 -30.41856752 74.49498341 -33 74 C-33.268125 75.134375 -33.53625 76.26875 -33.8125 77.4375 C-34.4003125 79.2009375 -34.4003125 79.2009375 -35 81 C-35.99 81.33 -36.98 81.66 -38 82 C-38 83.32 -38 84.64 -38 86 C-39.65 86.66 -41.3 87.32 -43 88 C-43.33 86.35 -43.66 84.7 -44 83 C-45.33895632 84.66215268 -46.67130142 86.32963607 -48 88 C-48.46148437 88.55558594 -48.92296875 89.11117187 -49.3984375 89.68359375 C-51.6099801 92.88223951 -53.18137461 96.28977433 -54.8125 99.8125 C-55.33807495 100.94147705 -55.33807495 100.94147705 -55.87426758 102.09326172 C-59.19151501 109.29335975 -62.20954339 116.58010391 -65 124 C-65.41894531 125.0725 -65.83789062 126.145 -66.26953125 127.25 C-81.66945705 169.48979648 -84.99152152 222.5924594 -66.1875 264.09765625 C-57.73724768 281.65195649 -44.1751346 294.72461621 -26 302 C-24.68 302 -23.36 302 -22 302 C-21.505 303.485 -21.505 303.485 -21 305 C4.20297693 315.61177976 33.74357449 312.72584304 58.57421875 302.8828125 C77.68063926 294.9539936 92.95375593 280.24116934 101 261.1875 C103.31159048 255.35736929 105.13179562 249.4316904 106.75 243.375 C106.94851563 242.63660889 107.14703125 241.89821777 107.3515625 241.13745117 C110.78688229 227.65058569 111.40257788 214.4651143 111.375 200.625 C111.37512085 199.69480042 111.3752417 198.76460083 111.37536621 197.80621338 C111.34888931 183.49606517 110.41478659 169.9426956 107 156 C106.70492714 154.64005751 106.41309274 153.27940701 106.125 151.91796875 C102.07284892 134.06317806 95.83621351 116.5327273 88 100 C87.29810547 98.47632813 87.29810547 98.47632813 86.58203125 96.921875 C80.41266022 83.99557379 72.94806472 72.32065142 63 62 C61.80470605 60.6317699 60.61678212 59.25705461 59.4375 57.875 C58.29588387 56.57960453 57.15003103 55.28793068 56 54 C55.40960938 53.33097656 54.81921875 52.66195312 54.2109375 51.97265625 C45.26737751 42.38501272 34.29145112 36.81000187 21.27734375 35.9609375 C17.48111384 36.00618458 14.69664529 36.75163815 11.2109375 38.1640625 Z M-45 50 C-45.33 50.66 -45.66 51.32 -46 52 C-45.01 51.67 -44.02 51.34 -43 51 C-43.66 50.67 -44.32 50.34 -45 50 Z M15 62 C15.33 63.65 15.66 65.3 16 67 C16.66 66.67 17.32 66.34 18 66 C17.34 64.68 16.68 63.36 16 62 C15.67 62 15.34 62 15 62 Z " fill="#AD7305" transform="translate(236,76)"/>
<path d="M0 0 C11.54646476 1.50309009 19.94145183 8.01189368 28 16 C28.61359375 16.57621094 29.2271875 17.15242188 29.859375 17.74609375 C39.18461468 26.66495831 46.26868855 37.08711628 53 48 C53.556875 48.8765625 54.11375 49.753125 54.6875 50.65625 C61.7646716 62.00921277 66.59253571 74.41913209 71 87 C71.42780762 88.20825439 71.42780762 88.20825439 71.86425781 89.44091797 C77.08011446 104.35598782 80.46049018 119.41224685 83 135 C83.18030762 136.07918701 83.36061523 137.15837402 83.54638672 138.27026367 C84.07616817 142.62627617 84.18065918 146.88988754 84.203125 151.2734375 C84.20882507 152.1554483 84.21452515 153.03745911 84.22039795 153.94619751 C84.22980862 155.81031105 84.23636621 157.67444094 84.24023438 159.53857422 C84.24985202 162.33201902 84.28087621 165.12469891 84.3125 167.91796875 C84.37994896 179.28327548 83.47208146 189.90497339 81 201 C80.79584473 201.91749023 80.59168945 202.83498047 80.38134766 203.78027344 C79.86533327 205.93387597 79.30020756 208.05961123 78.6875 210.1875 C78.47512695 210.92887207 78.26275391 211.67024414 78.04394531 212.43408203 C71.97544801 232.93397678 60.4486835 250.16663753 41.6953125 261.1171875 C16.0262528 274.70668969 -12.91071648 277.8066029 -41.01660156 270.62255859 C-43.85304822 269.73224114 -46.40941817 268.44427006 -49 267 C-49 266.34 -49 265.68 -49 265 C-47.77035522 264.97812622 -47.77035522 264.97812622 -46.51586914 264.95581055 C-22.63353697 265.62490471 -22.63353697 265.62490471 0 260 C2 263 2 263 2 266 C4.31 265.67 6.62 265.34 9 265 C9.020625 263.80375 9.04125 262.6075 9.0625 261.375 C9.5703125 259.17578125 9.5703125 259.17578125 11 257 C15.81135434 254.38222136 20.7964918 252.67649261 26 251 C26.99 250.67 27.98 250.34 29 250 C28.67 249.34 28.34 248.68 28 248 C27.6875 245.0625 27.6875 245.0625 28 242 C29.625 240.0625 29.625 240.0625 32 239 C32.928125 239.20625 33.85625 239.4125 34.8125 239.625 C38.17007436 240.32516432 38.17007436 240.32516432 41.4375 238.1875 C55.49687038 226.95241815 61.16156779 206.20004206 63.3125 189.0625 C67.08674904 152.58367166 63.59361393 113.19987111 50 79 C49.6704834 78.17000488 49.3409668 77.34000977 49.00146484 76.48486328 C39.03813462 51.79692676 26.21816441 29.4852172 8 10 C6.65980075 8.50613128 5.32595705 7.00652437 4 5.5 C3.443125 4.8709375 2.88625 4.241875 2.3125 3.59375 C1 2 1 2 0 0 Z " fill="#CECDC9" transform="translate(263,113)"/>
<path d="M0 0 C1.5486808 1.34355752 3.07105552 2.71817649 4.5625 4.125 C5.26890625 4.79015625 5.9753125 5.4553125 6.703125 6.140625 C18.29319411 18.08458935 23.5625 34.71857397 23.5625 51.125 C22.64474329 64.71927128 19.74028256 77.97805331 11.5625 89.125 C11.2325 89.125 10.9025 89.125 10.5625 89.125 C10.53296897 85.52085115 10.51552593 81.91673424 10.5 78.3125 C10.49162109 77.30767578 10.48324219 76.30285156 10.47460938 75.26757812 C10.45282099 68.49139019 10.86454709 61.86221306 11.5625 55.125 C12.68975539 41.90390458 8.41031594 29.78510833 0.5625 19.125 C-2.49908289 15.61952024 -5.56247849 12.70834767 -9.4375 10.125 C-9.4375 9.465 -9.4375 8.805 -9.4375 8.125 C-10.51 7.83625 -11.5825 7.5475 -12.6875 7.25 C-16.4375 6.125 -16.4375 6.125 -18.40234375 5.125 C-28.3054988 0.25895836 -41.85853018 0.82584724 -52.1875 3.6875 C-60.89704314 6.71597246 -67.70092185 10.93268804 -73.4375 18.125 C-74.0975 18.125 -74.7575 18.125 -75.4375 18.125 C-75.664375 18.785 -75.89125 19.445 -76.125 20.125 C-77.22495334 22.63917907 -78.35759094 24.55923895 -79.875 26.8125 C-86.62284558 37.57311766 -86.76329813 50.22662486 -84.75 62.5 C-83.402458 68.18855232 -81.02861053 74.53388947 -76.83984375 78.72265625 C-75.4375 80.125 -75.4375 80.125 -74.4375 83.125 C-64.01295335 93.5691049 -52.36248342 98.25791011 -37.83789062 98.46679688 C-34.71949979 98.59995557 -32.86963036 98.74558955 -30.484375 100.83984375 C-29.24290158 103.54977641 -29.13282924 105.40667408 -29.25 108.375 C-29.29060547 109.71304688 -29.29060547 109.71304688 -29.33203125 111.078125 C-29.38423828 112.09132813 -29.38423828 112.09132813 -29.4375 113.125 C-49.46777996 114.17922526 -66.13355938 110.19502554 -81.6875 96.8125 C-94.0884158 85.02765534 -101.76196968 71.78246088 -102.6171875 54.4921875 C-102.9858263 34.2170537 -96.69256904 18.34190139 -82.9140625 3.48046875 C-60.49386862 -17.84346959 -24.11219292 -18.54784071 0 0 Z " fill="#846C64" transform="translate(291.4375,232.875)"/>
<path d="M0 0 C4.78092614 -0.33355299 7.02879164 0.41871457 11 3 C11.99 3.28875 12.98 3.5775 14 3.875 C17.71605437 5.26852039 19.33199309 7.07169973 22 10 C22.78503906 10.65355469 22.78503906 10.65355469 23.5859375 11.3203125 C31.88943704 18.49664016 38.37167066 32.03406191 39.23046875 42.921875 C39.21628906 43.85515625 39.20210938 44.7884375 39.1875 45.75 C39.18105469 46.67296875 39.17460937 47.5959375 39.16796875 48.546875 C39.029621 51.39104734 38.79629167 54.18514376 38.51635742 57.01708984 C37.98957994 62.73701112 37.74555476 68.4397625 37.5703125 74.1796875 C37.49676038 76.26304448 37.42252192 78.34637731 37.34765625 80.4296875 C37.23371167 83.66847594 37.12402512 86.90717596 37.02587891 90.14648438 C36.92845492 93.30397191 36.81337482 96.46041318 36.6953125 99.6171875 C36.65762253 101.0688179 36.65762253 101.0688179 36.61917114 102.54977417 C36.41957918 107.48727176 36.17499667 110.96499753 33 115 C27.59862385 114.63990826 27.59862385 114.63990826 25.1875 112.0625 C23.52581653 107.77710579 23.25694647 103.56301481 23 99 C22.30132812 99.433125 21.60265625 99.86625 20.8828125 100.3125 C19.97273438 100.869375 19.06265625 101.42625 18.125 102 C17.22007812 102.556875 16.31515625 103.11375 15.3828125 103.6875 C13 105 13 105 11 105 C10.17457101 112.649958 9.89730202 120.17521346 10.125 127.85913086 C10.21097953 132.9038603 9.4456253 137.15635509 8 142 C7 143 7 143 3.4375 143.0625 C2.303125 143.041875 1.16875 143.02125 0 143 C-2.64756182 139.02396777 -2.41040727 134.79396111 -2.5625 130.18359375 C-2.61772827 128.90428734 -2.61772827 128.90428734 -2.67407227 127.59913635 C-2.83110656 123.95631992 -2.9669616 120.31278612 -3.10449219 116.66918945 C-3.20800894 114.00695694 -3.32246169 111.34534922 -3.4375 108.68359375 C-3.46465088 107.85854843 -3.49180176 107.03350311 -3.51977539 106.18345642 C-3.68769298 102.32805349 -3.81564819 100.27652771 -6 97 C-9.1075637 96.59904757 -9.1075637 96.59904757 -12.75 96.625 C-24.21194953 96.19606184 -34.34746748 92.63105298 -43 85 C-44.16649129 84.06228179 -45.33314495 83.12476552 -46.5 82.1875 C-47.325 81.465625 -48.15 80.74375 -49 80 C-49 79.67 -49 79.34 -49 79 C-47.02 79 -45.04 79 -43 79 C-42.7525 79.804375 -42.505 80.60875 -42.25 81.4375 C-41.27761141 84.171081 -41.27761141 84.171081 -38.875 84.8125 C-37.946875 84.9053125 -37.946875 84.9053125 -37 85 C-37 85.66 -37 86.32 -37 87 C-23.43514556 86.59325774 -11.88504865 84.4242739 -1 76 C0.546875 74.9171875 0.546875 74.9171875 2.125 73.8125 C10.76642339 66.24826235 16.46692879 53.29475309 17.4453125 42.0078125 C18.00566785 30.07840607 15.38772919 19.33412385 8.171875 9.70703125 C7 8 7 8 7 6 C6.34 6 5.68 6 5 6 C3.2856382 4.04072937 1.61594832 2.04119788 0 0 Z " fill="#F57B13" transform="translate(265,236)"/>
<path d="M0 0 C16.20150563 12.32723254 26.50429055 33.01244967 34.8125 51.125 C35.25142578 52.07947021 35.69035156 53.03394043 36.14257812 54.01733398 C38.38309467 59.06171535 38.38309467 59.06171535 39 61 C38.505 61.99 38.505 61.99 38 63 C34 57.375 34 57.375 34 54 C33.34 54 32.68 54 32 54 C31.90203125 53.30132812 31.8040625 52.60265625 31.703125 51.8828125 C31.55359375 50.97273438 31.4040625 50.06265625 31.25 49.125 C31.11078125 48.22007812 30.9715625 47.31515625 30.828125 46.3828125 C30.24089103 43.84486944 30.24089103 43.84486944 28 42.875 C27.01 42.441875 27.01 42.441875 26 42 C24.75 38.875 24.75 38.875 24 36 C21.03 35.67 18.06 35.34 15 35 C15 38.27275026 15.29925156 40.846632 16 44 C12.81823852 40.17318893 10.09476099 36.19426017 7.4375 32 C7.05142578 31.39671875 6.66535156 30.7934375 6.26757812 30.171875 C4.12419982 26.8125768 2.03198804 23.42776257 0 20 C0.66 20 1.32 20 2 20 C2 20.66 2 21.32 2 22 C2.66 22 3.32 22 4 22 C4.33 22.66 4.66 23.32 5 24 C7.10560331 24.23063512 7.10560331 24.23063512 8.5 22.5625 C8.995 22.046875 9.49 21.53125 10 21 C10.66 20.67 11.32 20.34 12 20 C11.34 17.69 10.68 15.38 10 13 C7.03 12.505 7.03 12.505 4 12 C3.896875 10.906875 3.79375 9.81375 3.6875 8.6875 C3.00272798 5.01463192 2.72080696 4.24762314 0 2 C0 1.34 0 0.68 0 0 Z " fill="#AB750D" transform="translate(303,122)"/>
<path d="M0 0 C0.66 0.33 1.32 0.66 2 1 C2 3.31 2 5.62 2 8 C-1.33333333 9.66666667 -4.66666667 11.33333333 -8 13 C-8 14.65 -8 16.3 -8 18 C-7.01 18.33 -6.02 18.66 -5 19 C-5.33 19.66 -5.66 20.32 -6 21 C-6.66 21 -7.32 21 -8 21 C-8 21.66 -8 22.32 -8 23 C-8.99 23 -9.98 23 -11 23 C-11 22.34 -11 21.68 -11 21 C-11.845625 21.33 -12.69125 21.66 -13.5625 22 C-17.25397569 23.07388384 -20.17544681 23.2941964 -24 23 C-24.66 22.34 -25.32 21.68 -26 21 C-25.88671875 19.0078125 -25.88671875 19.0078125 -25 17 C-23.14453125 15.8046875 -23.14453125 15.8046875 -20.8125 14.875 C-19.99652344 14.54113281 -19.18054688 14.20726562 -18.33984375 13.86328125 C-16.5404418 13.19939505 -14.71207792 12.61362338 -12.875 12.0625 C-9.02252169 10.63875802 -6.26652723 8.48256069 -3 6 C-3.66 5.34 -4.32 4.68 -5 4 C-3.35 2.68 -1.7 1.36 0 0 Z " fill="#A67311" transform="translate(196,120)"/>
<path d="M0 0 C0.99 0.66 1.98 1.32 3 2 C3 2.66 3 3.32 3 4 C2.21625 4.45375 1.4325 4.9075 0.625 5.375 C-2.1235949 7.07651113 -2.87921032 8.04519084 -4 11 C-4.66 11 -5.32 11 -6 11 C-6.33 11.99 -6.66 12.98 -7 14 C-7.99 14.66 -8.98 15.32 -10 16 C-11.33333333 15.66666667 -12.66666667 15.33333333 -14 15 C-14.99 15.66 -15.98 16.32 -17 17 C-17.66 17 -18.32 17 -19 17 C-17.18655682 10.80406913 -15.10222078 5.82192467 -10.1875 1.5625 C-6.4549354 -0.26718853 -4.10849381 -0.46511251 0 0 Z " fill="#AA750D" transform="translate(236,76)"/>
<path d="M0 0 C0.99 0.66 1.98 1.32 3 2 C3.1875 4.625 3.1875 4.625 3 7 C2.67 6.34 2.34 5.68 2 5 C1.30132812 5.433125 0.60265625 5.86625 -0.1171875 6.3125 C-1.48230469 7.1478125 -1.48230469 7.1478125 -2.875 8 C-3.77992188 8.556875 -4.68484375 9.11375 -5.6171875 9.6875 C-8 11 -8 11 -10 11 C-10.82542899 18.649958 -11.10269798 26.17521346 -10.875 33.85913086 C-10.78906193 38.9014278 -11.61273011 43.14727553 -13 48 C-14.70607571 42.88177287 -13.93909992 37.42436244 -13.75805664 32.07836914 C-13.68856201 29.96972395 -13.63373912 27.86105284 -13.58007812 25.75195312 C-13.00894515 6.34376935 -13.00894515 6.34376935 -8.75 1.375 C-5.51453748 -0.24273126 -3.57327751 -0.46607967 0 0 Z " fill="#DB8841" transform="translate(286,330)"/>
<path d="M0 0 C0.495 0.99 0.495 0.99 1 2 C0.01 2.66 -0.98 3.32 -2 4 C4.03646558 4.28745074 8.44222699 3.82168267 14.0546875 1.55859375 C16 1 16 1 19 2 C-2.21886039 10.8561769 -25.80942192 11.48237812 -48 6 C-48 5.67 -48 5.34 -48 5 C-46.39592672 4.97291433 -44.7917215 4.95356517 -43.1875 4.9375 C-42.29417969 4.92589844 -41.40085938 4.91429687 -40.48046875 4.90234375 C-38 5 -38 5 -35 6 C-32.7161483 6.08378628 -30.429899 6.10729915 -28.14453125 6.09765625 C-27.48289474 6.0962413 -26.82125824 6.09482635 -26.13957214 6.09336853 C-24.03050172 6.08777996 -21.92153823 6.07522965 -19.8125 6.0625 C-18.38086091 6.05748352 -16.94922015 6.05292087 -15.51757812 6.04882812 C-12.01168412 6.0378143 -8.5058525 6.02055755 -5 6 C-5.66 4.35 -6.32 2.7 -7 1 C-3.535 0.505 -3.535 0.505 0 0 Z " fill="#D7C5A9" transform="translate(272,378)"/>
<path d="M0 0 C2.85784302 4.28676452 3.13858055 7.46300486 3.125 12.5625 C3.12757813 13.51253906 3.13015625 14.46257812 3.1328125 15.44140625 C3.02491036 18.332549 2.80456115 21.14781382 2.51855469 24.02368164 C1.98960054 29.74149848 1.74549645 35.4416724 1.5703125 41.1796875 C1.49676038 43.26304448 1.42252192 45.34637731 1.34765625 47.4296875 C1.23371167 50.66847594 1.12402512 53.90717596 1.02587891 57.14648438 C0.92845492 60.30397191 0.81337482 63.46041318 0.6953125 66.6171875 C0.67018585 67.5849411 0.6450592 68.5526947 0.61917114 69.54977417 C0.41957918 74.48727176 0.17499667 77.96499753 -3 82 C-5.9375 81.625 -5.9375 81.625 -9 81 C-9.33 80.34 -9.66 79.68 -10 79 C-8.35 79.33 -6.7 79.66 -5 80 C-5 79.01 -5 78.02 -5 77 C-3.515 76.505 -3.515 76.505 -2 76 C-1.97494385 75.07888428 -1.9498877 74.15776855 -1.92407227 73.20874023 C-1.82759882 69.71403898 -1.72847268 66.21943206 -1.62768555 62.72485352 C-1.58499467 61.22683548 -1.54329055 59.72878892 -1.50268555 58.23071289 C-1.2948659 50.58756804 -1.02921793 42.97098742 -0.46875 35.34375 C0.0601468 27.9080832 0.11410943 20.51410739 0.0625 13.0625 C0.05798828 11.79470703 0.05347656 10.52691406 0.04882812 9.22070312 C0.03722956 6.14708224 0.02091301 3.07356914 0 0 Z " fill="#D47B33" transform="translate(301,269)"/>
<path d="M0 0 C1.98 0 3.96 0 6 0 C6.37125 1.2065625 6.37125 1.2065625 6.75 2.4375 C7.36875 3.7059375 7.36875 3.7059375 8 5 C9.93618425 5.67156616 9.93618425 5.67156616 12 6 C12.40992188 6.49886719 12.81984375 6.99773437 13.2421875 7.51171875 C15.82838761 9.70136818 17.86365415 9.29472083 21.1875 9.1875 C22.81751953 9.14689453 22.81751953 9.14689453 24.48046875 9.10546875 C25.31191406 9.07066406 26.14335937 9.03585937 27 9 C27 9.66 27 10.32 27 11 C27.66 11.33 28.32 11.66 29 12 C29 12.66 29 13.32 29 14 C32.31544299 15.10514766 35.20410111 15.32107631 38.6875 15.5625 C39.86699219 15.64628906 41.04648437 15.73007812 42.26171875 15.81640625 C43.16535156 15.87699219 44.06898438 15.93757813 45 16 C45.495 18.475 45.495 18.475 46 21 C45.64550781 20.51273437 45.29101562 20.02546875 44.92578125 19.5234375 C42.09186484 17.28159693 39.76163754 17.66242552 36.1875 17.625 C24.75159829 17.1941143 14.63020662 13.61136278 6 6 C4.83350871 5.06228179 3.66685505 4.12476552 2.5 3.1875 C1.675 2.465625 0.85 1.74375 0 1 C0 0.67 0 0.34 0 0 Z " fill="#F67C12" transform="translate(216,315)"/>
<path d="M0 0 C8.29575278 7.35955497 13.11089554 19.97295604 17.625 29.8125 C18.07496338 30.78550049 18.52492676 31.75850098 18.98852539 32.76098633 C19.39707764 33.67130615 19.80562988 34.58162598 20.2265625 35.51953125 C20.59346191 36.33526611 20.96036133 37.15100098 21.33837891 37.99145508 C22 40 22 40 21 42 C17 36.375 17 36.375 17 33 C16.34 33 15.68 33 15 33 C14.90203125 32.30132812 14.8040625 31.60265625 14.703125 30.8828125 C14.55359375 29.97273438 14.4040625 29.06265625 14.25 28.125 C14.04117187 26.76761719 14.04117187 26.76761719 13.828125 25.3828125 C13.23999598 22.84114836 13.23999598 22.84114836 10.98046875 21.8671875 C10.00013672 21.43792969 10.00013672 21.43792969 9 21 C8.5359375 19.515 8.5359375 19.515 8.0625 18 C7.30499122 14.78057372 7.30499122 14.78057372 4.375 13.625 C3.59125 13.41875 2.8075 13.2125 2 13 C2.33 11.02 2.66 9.04 3 7 C2.34 7 1.68 7 1 7 C0.67 4.69 0.34 2.38 0 0 Z " fill="#A27514" transform="translate(320,143)"/>
<path d="M0 0 C0.99 0.66 1.98 1.32 3 2 C1.35 2 -0.3 2 -2 2 C-2 3.65 -2 5.3 -2 7 C-6.32564205 8.58255197 -10.428721 9.45144652 -15 10 C-15.33 9.34 -15.66 8.68 -16 8 C-12.38603778 0.58186703 -7.9641313 -1.12935195 0 0 Z " fill="#A8710C" transform="translate(181,99)"/>
<path d="M0 0 C2.65565402 3.1474418 3.85236595 6.08053748 5.0625 10 C6.34057895 14.14935018 6.34057895 14.14935018 8.0625 18.12109375 C9.05987111 20.11999168 9.50811391 21.87467564 9.9375 24.0625 C10.67329855 27.61301997 11.56507983 31.07637126 12.5625 34.5625 C13.82007919 39.05565983 14.48566471 43.37098243 15 48 C15.33 48.33 15.66 48.66 16 49 C16.07271741 51.35313555 16.08370868 53.70833668 16.0625 56.0625 C16.05347656 57.35285156 16.04445313 58.64320313 16.03515625 59.97265625 C16.02355469 60.97167969 16.01195312 61.97070312 16 63 C15.67 63 15.34 63 15 63 C14.89977539 62.38705078 14.79955078 61.77410156 14.69628906 61.14257812 C11.79486282 43.54980312 8.14920248 26.77348253 2.28588867 9.91552734 C1.99045166 9.06039551 1.69501465 8.20526367 1.390625 7.32421875 C0.9889209 6.1808606 0.9889209 6.1808606 0.57910156 5.0144043 C0 3 0 3 0 0 Z " fill="#A67924" transform="translate(331,192)"/>
<path d="M0 0 C3 1 3 1 4.09765625 3.109375 C4.41605469 3.98078125 4.73445313 4.8521875 5.0625 5.75 C5.38347656 6.61109375 5.70445312 7.4721875 6.03515625 8.359375 C6.35355469 9.23078125 6.67195313 10.1021875 7 11 C7.36480469 11.71285156 7.72960937 12.42570312 8.10546875 13.16015625 C9.51212496 17.62582902 9.29197304 22.03448892 9.25 26.6875 C9.24613281 27.72519531 9.24226563 28.76289063 9.23828125 29.83203125 C9.10837916 41.92735965 8.10199989 53.96006505 7 66 C6.67 66 6.34 66 6 66 C5.97046897 62.39585115 5.95302593 58.79173424 5.9375 55.1875 C5.92912109 54.18267578 5.92074219 53.17785156 5.91210938 52.14257812 C5.89032099 45.36639019 6.30204709 38.73721306 7 32 C7.82829875 22.28523898 5.59220695 14.99140285 2 6 C1.31965066 4.00461301 0.64845805 2.00597772 0 0 Z " fill="#98694C" transform="translate(296,256)"/>
<path d="M0 0 C4.47238048 3.54272836 8.3198651 6.85414099 11 12 C11.25 15.375 11.25 15.375 11 18 C7.98782888 17.35550393 5.48344164 16.34977818 2.75 14.9375 C2.04359375 14.57527344 1.3371875 14.21304688 0.609375 13.83984375 C0.07828125 13.56269531 -0.4528125 13.28554687 -1 13 C-0.01 12.67 0.98 12.34 2 12 C1.34 11.01 0.68 10.02 0 9 C0.29259485 6.99363529 0.62633887 4.99285937 1 3 C0.67 2.01 0.34 1.02 0 0 Z M3 9 C3.33 10.65 3.66 12.3 4 14 C4.66 13.67 5.32 13.34 6 13 C5.34 11.68 4.68 10.36 4 9 C3.67 9 3.34 9 3 9 Z " fill="#A27423" transform="translate(248,129)"/>
<path d="M0 0 C7.23985427 2.29556355 12.8135484 4.29490323 18 10 C19.26551611 11.2761284 20.53656298 12.54679093 21.8125 13.8125 C22.875 14.875 23.9375 15.9375 25 17 C24.67 17.66 24.34 18.32 24 19 C23.60167969 18.57847656 23.20335937 18.15695313 22.79296875 17.72265625 C22.26316406 17.17480469 21.73335938 16.62695312 21.1875 16.0625 C20.66542969 15.51722656 20.14335937 14.97195312 19.60546875 14.41015625 C17.94187802 12.76480908 17.94187802 12.76480908 15 12 C14.67 11.34 14.34 10.68 14 10 C13.01 9.67 12.02 9.34 11 9 C10.67 9.99 10.34 10.98 10 12 C9.34 12 8.68 12 8 12 C6.7109375 10.5390625 6.7109375 10.5390625 5.375 8.625 C4.70597656 7.68527344 4.70597656 7.68527344 4.0234375 6.7265625 C3 5 3 5 3 3 C2.01 2.67 1.02 2.34 0 2 C0 1.34 0 0.68 0 0 Z " fill="#E87B21" transform="translate(269,236)"/>
<path d="M0 0 C0.33 0 0.66 0 1 0 C3.50889149 7.82124068 3.41285934 15.74049646 3.5625 23.875 C3.60651971 26.01200062 3.65316324 28.14885678 3.70530701 30.28567505 C3.75158813 32.20838324 3.78922999 34.13129363 3.82641602 36.05419922 C3.80197447 38.93213687 3.80197447 38.93213687 5 41 C7.52733235 41.65555119 7.52733235 41.65555119 10 42 C10 42.33 10 42.66 10 43 C7.69 43 5.38 43 3 43 C0.73356818 39.37002383 0.56102927 35.79001573 0.375 31.625 C0.33705322 30.90127197 0.29910645 30.17754395 0.26000977 29.43188477 C-0.19365986 19.62912319 -0.08897149 9.81013377 0 0 Z " fill="#DE893D" transform="translate(262,336)"/>
<path d="M0 0 C1.4540625 0.0309375 1.4540625 0.0309375 2.9375 0.0625 C-4.77479024 5.20402683 -14.92848212 5.77446729 -23.9375 6.75 C-25.55978516 6.94432617 -25.55978516 6.94432617 -27.21484375 7.14257812 C-34.85592104 8.0032239 -42.37693686 8.21135954 -50.0625 8.0625 C-49.7325 7.4025 -49.4025 6.7425 -49.0625 6.0625 C-48.37623535 6.03744385 -47.6899707 6.0123877 -46.98291016 5.98657227 C-43.88424183 5.87078573 -40.78589077 5.74798115 -37.6875 5.625 C-36.60726563 5.58568359 -35.52703125 5.54636719 -34.4140625 5.50585938 C-32.8671875 5.44301758 -32.8671875 5.44301758 -31.2890625 5.37890625 C-30.33596191 5.34224854 -29.38286133 5.30559082 -28.40087891 5.26782227 C-26.04117651 5.20486535 -26.04117651 5.20486535 -24.0625 4.0625 C-22.02194995 3.99184383 -19.97915743 3.97828024 -17.9375 4 C-16.84179688 4.00902344 -15.74609375 4.01804687 -14.6171875 4.02734375 C-13.35261719 4.04474609 -13.35261719 4.04474609 -12.0625 4.0625 C-12.0625 3.4025 -12.0625 2.7425 -12.0625 2.0625 C-10.01171875 1.83463542 -7.9609375 1.60677083 -5.91015625 1.37890625 C-3.00452994 0.88132542 -3.42063662 0.06980891 0 0 Z " fill="#A07321" transform="translate(341.0625,398.9375)"/>
<path d="M0 0 C0.625 3.375 0.625 3.375 1 7 C-1 9 -1 9 -4.5625 9.1875 C-8 9 -8 9 -9 8 C-9.3125 5.125 -9.3125 5.125 -9 2 C-6.09797328 -1.3319566 -4.08536588 -1.24830624 0 0 Z " fill="#DF883D" transform="translate(300,353)"/>
<path d="M0 0 C3.92491136 4.52874388 7.37459686 9.60598991 10 15 C9.67 15.66 9.34 16.32 9 17 C7.68 16.34 6.36 15.68 5 15 C4.9175 15.5775 4.835 16.155 4.75 16.75 C3.79468987 19.6159304 2.21530827 20.9990764 0 23 C-0.66 21.02 -1.32 19.04 -2 17 C-1.34 17 -0.68 17 0 17 C0.33 15.35 0.66 13.7 1 12 C1.66 12 2.32 12 3 12 C2.67 9.36 2.34 6.72 2 4 C1.34 4 0.68 4 0 4 C0 2.68 0 1.36 0 0 Z " fill="#D0C9BB" transform="translate(311,154)"/>
<path d="M0 0 C1.1700097 3.91736581 0.69584017 6.97959015 0 11 C-0.66 11 -1.32 11 -2 11 C-2.48930587 24.10252372 -1.30193618 35.26536022 5 47 C5 47.99 5 48.98 5 50 C-3.69875033 40.67991036 -4.46956799 28.27717878 -4.30078125 16.11328125 C-4.03958948 10.3871539 -2.22500073 5.24464457 0 0 Z " fill="#E9AF33" transform="translate(209,262)"/>
<path d="M0 0 C0.66 0.33 1.32 0.66 2 1 C-2.17730474 5.32649419 -6.780339 6.14839107 -12.453125 7.38671875 C-14.92042093 7.74644791 -14.92042093 7.74644791 -16 9 C-25.88991148 10.49735108 -36.02796052 10.09972039 -46 10 C-46 9.67 -46 9.34 -46 9 C-45.36199463 8.96559814 -44.72398926 8.93119629 -44.06665039 8.89575195 C-29.43030918 8.0480874 -15.74288558 6.62314524 -2.16796875 0.78125 C-1.45253906 0.5234375 -0.73710937 0.265625 0 0 Z " fill="#A77F2C" transform="translate(294,378)"/>
<path d="M0 0 C1 3 1 3 0.078125 6.19921875 C-2.60658225 15.66378451 -1.50276881 26.57351308 1 36 C1.33333333 37.33333333 1.66666667 38.66666667 2 40 C1.34 40 0.68 40 0 40 C-0.20496094 39.28972656 -0.40992188 38.57945312 -0.62109375 37.84765625 C-0.89050781 36.92855469 -1.15992188 36.00945312 -1.4375 35.0625 C-1.70433594 34.14597656 -1.97117188 33.22945313 -2.24609375 32.28515625 C-2.79026051 30.0597507 -2.79026051 30.0597507 -4 29 C-4.12851093 26.15482772 -4.18975366 23.34581089 -4.1875 20.5 C-4.18814453 19.68225098 -4.18878906 18.86450195 -4.18945312 18.02197266 C-4.14031725 12.41489947 -3.60017085 7.40057661 -2 2 C-1.34 2 -0.68 2 0 2 C0 1.34 0 0.68 0 0 Z " fill="#967142" transform="translate(207,264)"/>
<path d="M0 0 C0.66 0.33 1.32 0.66 2 1 C1.60167969 1.43570313 1.20335937 1.87140625 0.79296875 2.3203125 C-2.48936831 6.00994686 -4.99399746 9.43077198 -7 14 C-7.99 13.67 -8.98 13.34 -10 13 C-12.52588702 15.36292656 -13.88820837 16.66462511 -15 20 C-17.0625 21.1875 -17.0625 21.1875 -19 22 C-15.46576154 11.98632436 -8.34065128 6.02265391 0 0 Z " fill="#F3AE19" transform="translate(229,240)"/>
<path d="M0 0 C0.66 0.33 1.32 0.66 2 1 C-9.29438609 11.40272403 -21.09941196 13.37670026 -36 13 C-32.85619118 11.17527181 -30.42374209 10.73446391 -26.8125 10.5625 C-17.16507051 9.81841634 -7.49985761 6.24988134 0 0 Z " fill="#FEA50F" transform="translate(264,310)"/>
<path d="M0 0 C3.05227053 3.05227053 3.84346654 6.83341231 5.1875 10.875 C5.47302734 11.69097656 5.75855469 12.50695312 6.05273438 13.34765625 C6.31763672 14.13785156 6.58253906 14.92804688 6.85546875 15.7421875 C7.09934326 16.4626123 7.34321777 17.18303711 7.59448242 17.92529297 C8.05438478 20.27824316 7.74371194 21.74376667 7 24 C7 23.34 7 22.68 7 22 C6.38125 22.185625 5.7625 22.37125 5.125 22.5625 C3 23 3 23 1 22 C1.09539062 21.09636719 1.19078125 20.19273437 1.2890625 19.26171875 C1.39992188 18.08222656 1.51078125 16.90273437 1.625 15.6875 C1.74101562 14.51574219 1.85703125 13.34398437 1.9765625 12.13671875 C2.29448782 8.83408833 2.29448782 8.83408833 0 6 C-0.125 2.8125 -0.125 2.8125 0 0 Z " fill="#AA730A" transform="translate(344,190)"/>
<path d="M0 0 C0.433125 0.61875 0.86625 1.2375 1.3125 1.875 C4.20008809 4.15820919 5.282143 4.37066329 8.8125 4.875 C13.90425366 5.6329065 18.37289195 7.09416233 23.125 9 C23.78862549 9.26151855 24.45225098 9.52303711 25.13598633 9.79248047 C29.86995459 11.73990917 29.86995459 11.73990917 31 14 C29.53984709 13.71758359 28.08190207 13.42373386 26.625 13.125 C25.40683594 12.88136719 25.40683594 12.88136719 24.1640625 12.6328125 C22 12 22 12 20 10 C18.17203399 9.45051478 18.17203399 9.45051478 16.0859375 9.1484375 C15.32539063 9.01953125 14.56484375 8.890625 13.78125 8.7578125 C12.59015625 8.56832031 12.59015625 8.56832031 11.375 8.375 C10.57320313 8.2409375 9.77140625 8.106875 8.9453125 7.96875 C6.96472516 7.63865211 4.98250325 7.31838917 3 7 C2.67 6.01 2.34 5.02 2 4 C1.01 4.33 0.02 4.66 -1 5 C-0.67 3.35 -0.34 1.7 0 0 Z " fill="#A0771F" transform="translate(251,92)"/>
<path d="M0 0 C2.97 0.495 2.97 0.495 6 1 C0.93973027 7.93979849 -5.49136148 12.00714664 -13 16 C-13.66 16 -14.32 16 -15 16 C-14.67 15.01 -14.34 14.02 -14 13 C-13.34 13 -12.68 13 -12 13 C-12 12.34 -12 11.68 -12 11 C-10.02 10.67 -8.04 10.34 -6 10 C-5.9175 9.38125 -5.835 8.7625 -5.75 8.125 C-5 6 -5 6 -3.125 4.75 C-1 4 -1 4 2 4 C1.34 2.68 0.68 1.36 0 0 Z " fill="#D5CAB6" transform="translate(314,360)"/>
<path d="M0 0 C0.66 0.33 1.32 0.66 2 1 C1.97679687 1.86882812 1.95359375 2.73765625 1.9296875 3.6328125 C1.91164062 4.78523438 1.89359375 5.93765625 1.875 7.125 C1.84019531 8.83042969 1.84019531 8.83042969 1.8046875 10.5703125 C2.00327891 14.05757767 2.7475199 16.7553862 4 20 C6.97 20 9.94 20 13 20 C13 19.34 13 18.68 13 18 C14.65 18 16.3 18 18 18 C13.80587869 21.44517108 10.61548836 22.14140424 5.25 22.0625 C4.45078125 22.05347656 3.6515625 22.04445312 2.828125 22.03515625 C2.22484375 22.02355469 1.6215625 22.01195312 1 22 C-0.88078239 14.94706603 -1.50981156 8.30334707 -1 1 C-0.67 0.67 -0.34 0.34 0 0 Z " fill="#A0782A" transform="translate(166,111)"/>
<path d="M0 0 C5.75 -0.125 5.75 -0.125 8 1 C8 1.66 8 2.32 8 3 C5.8828125 4.5078125 5.8828125 4.5078125 3.125 6.125 C2.22007812 6.66382813 1.31515625 7.20265625 0.3828125 7.7578125 C-2 9 -2 9 -4 9 C-4 7.02 -4 5.04 -4 3 C-2.68 2.67 -1.36 2.34 0 2 C0 1.34 0 0.68 0 0 Z " fill="#9B7766" transform="translate(280,332)"/>
<path d="M0 0 C5.92013241 0.46737887 10.97466002 2.96208261 16 6 C16.33 6.66 16.66 7.32 17 8 C14.36 8 11.72 8 9 8 C9.33 6.68 9.66 5.36 10 4 C8.02 4.66 6.04 5.32 4 6 C4 6.33 4 6.66 4 7 C2.02 7.33 0.04 7.66 -2 8 C-2.33 7.01 -2.66 6.02 -3 5 C-1.35 4.34 0.3 3.68 2 3 C1.34 2.01 0.68 1.02 0 0 Z " fill="#AA791E" transform="translate(184,101)"/>
<path d="M0 0 C2.10857445 3.67818592 3.0625365 7.6041576 4.0625 11.6875 C4.2387793 12.39777344 4.41505859 13.10804688 4.59667969 13.83984375 C5.81463004 18.88662478 6.62955135 23.81371889 7 29 C6.01 28.34 5.02 27.68 4 27 C3.59270772 24.67843403 3.25561323 22.3431213 3 20 C2.67 19.67 2.34 19.34 2 19 C1.67902249 16.68182911 1.48779044 14.36220643 1.28125 12.03125 C1.20934163 10.00819407 1.20934163 10.00819407 0 9 C-0.07179964 7.48071962 -0.08392007 5.95832518 -0.0625 4.4375 C-0.05347656 3.61121094 -0.04445313 2.78492188 -0.03515625 1.93359375 C-0.02355469 1.29550781 -0.01195312 0.65742188 0 0 Z " fill="#D3C6AD" transform="translate(337,212)"/>
<path d="M0 0 C-1.32 0.33 -2.64 0.66 -4 1 C-4.33 2.32 -4.66 3.64 -5 5 C-3.35 5.33 -1.7 5.66 0 6 C0.33 5.01 0.66 4.02 1 3 C1.33 3.66 1.66 4.32 2 5 C2.99 5.33 3.98 5.66 5 6 C0.51023509 7.75210338 -3.18010242 8.37076135 -8 8 C-8.66 7.34 -9.32 6.68 -10 6 C-9.875 4 -9.875 4 -9 2 C-6.04454879 -0.11103658 -3.56144099 -0.19785783 0 0 Z " fill="#A2751F" transform="translate(180,135)"/>
<path d="M0 0 C0.33 0 0.66 0 1 0 C1.04241723 2.33294775 1.04092937 4.66702567 1 7 C0.67 7.33 0.34 7.66 0 8 C-0.03145807 10.29643908 0.0680779 12.57650129 0.16015625 14.87109375 C0 17 0 17 -2 19 C-4.3828125 19.1953125 -4.3828125 19.1953125 -7.125 19.125 C-8.49011719 19.09792969 -8.49011719 19.09792969 -9.8828125 19.0703125 C-10.58148438 19.04710938 -11.28015625 19.02390625 -12 19 C-12 18.01 -12 17.02 -12 16 C-10.02 16.33 -8.04 16.66 -6 17 C-3.47041916 11.4590134 -1.66153012 5.85659906 0 0 Z " fill="#A47416" transform="translate(216,94)"/>
<path d="M0 0 C-0.33 2.64 -0.66 5.28 -1 8 C-2.65 7.67 -4.3 7.34 -6 7 C-6.680625 7.99 -6.680625 7.99 -7.375 9 C-7.91125 9.66 -8.4475 10.32 -9 11 C-9.66 11 -10.32 11 -11 11 C-9.25 5.25 -9.25 5.25 -7 3 C-7.33 2.34 -7.66 1.68 -8 1 C-5.32916926 -0.33541537 -2.92701445 0 0 0 Z " fill="#B16E0E" transform="translate(198,153)"/>
<path d="M0 0 C2.64 0 5.28 0 8 0 C8 0.66 8 1.32 8 2 C14.98059091 2.95812032 21.97326485 3.49656013 29 4 C29.33 5.65 29.66 7.3 30 9 C29.64808594 8.51402344 29.29617188 8.02804687 28.93359375 7.52734375 C26.07309886 5.26784173 23.66552215 5.62571091 20.0625 5.5625 C12.86196841 5.31026607 6.71341946 3.68786813 0 1 C0 0.67 0 0.34 0 0 Z " fill="#E57D2A" transform="translate(232,327)"/>
<path d="M0 0 C0.66 0.33 1.32 0.66 2 1 C2 2.65 2 4.3 2 6 C2.58007812 6.18175781 3.16015625 6.36351562 3.7578125 6.55078125 C8.39147293 8.0418106 12.69762355 9.68333576 17 12 C12.32675771 13.55774743 8.48774853 11.72552191 4 10 C1.82006831 8.80082343 -0.01535306 7.51459898 -2 6 C-1.125 1.125 -1.125 1.125 0 0 Z " fill="#AB671B" transform="translate(155,390)"/>
<path d="M0 0 C5.06739231 5.06739231 4.31143695 13.38953962 4.31298828 20.11767578 C4.20225868 25.3916398 3.34432261 29.31135478 1 34 C-0.07844306 30.76467082 0.06677415 30.07325125 0.9375 26.9375 C2.71154124 19.52755903 2.60801896 13.17205214 0 6 C-0.125 2.625 -0.125 2.625 0 0 Z " fill="#FEA50E" transform="translate(279,256)"/>
<path d="M0 0 C0.33 0 0.66 0 1 0 C1 4.95 1 9.9 1 15 C1.66 15 2.32 15 3 15 C4.13896163 19.34492771 3.93100471 23.38620785 3.5625 27.8125 C3.51029297 28.50537109 3.45808594 29.19824219 3.40429688 29.91210938 C3.27560181 31.60854437 3.13863816 33.30434863 3 35 C2.67 35 2.34 35 2 35 C0.33588863 23.26207161 -0.24949584 11.85105258 0 0 Z " fill="#A2791F" transform="translate(144,282)"/>
<path d="M0 0 C5.58490476 4.44512827 9.79211991 9.24454091 14 15 C13.67 15.66 13.34 16.32 13 17 C12.01 16.34 11.02 15.68 10 15 C10 14.34 10 13.68 10 13 C7.03 12.505 7.03 12.505 4 12 C3.896875 10.906875 3.79375 9.81375 3.6875 8.6875 C3.00272798 5.01463192 2.72080696 4.24762314 0 2 C0 1.34 0 0.68 0 0 Z " fill="#A47720" transform="translate(303,122)"/>
<path d="M0 0 C5.61 0 11.22 0 17 0 C17 0.33 17 0.66 17 1 C15.02 1.33 13.04 1.66 11 2 C10.67 2.99 10.34 3.98 10 5 C3.375 4.25 3.375 4.25 0 2 C0 1.34 0 0.68 0 0 Z " fill="#CDC5B3" transform="translate(214,378)"/>
<path d="M0 0 C1.41655793 -0.0272415 2.83327045 -0.04650467 4.25 -0.0625 C5.43335938 -0.07990234 5.43335938 -0.07990234 6.640625 -0.09765625 C8.90691002 -0.00385306 10.8288895 0.36758937 13 1 C13 1.66 13 2.32 13 3 C14.98 2.67 16.96 2.34 19 2 C19.12375 2.86625 19.12375 2.86625 19.25 3.75 C20.20531013 6.6159304 21.78469173 7.9990764 24 10 C20.21471319 8.56491874 16.70206938 6.82823667 13.125 4.9375 C8.61297626 2.64806573 5.04222953 1.22919225 0 1 C0 0.67 0 0.34 0 0 Z " fill="#A47D2D" transform="translate(260,112)"/>
<path d="M0 0 C0 0.33 0 0.66 0 1 C-0.75925781 1.06058594 -1.51851563 1.12117187 -2.30078125 1.18359375 C-3.29464844 1.26738281 -4.28851563 1.35117188 -5.3125 1.4375 C-6.29863281 1.51871094 -7.28476563 1.59992188 -8.30078125 1.68359375 C-11.09375599 1.91812559 -11.09375599 1.91812559 -14 3 C-16.33299825 3.03954234 -18.66708189 3.04401732 -21 3 C-21 3.66 -21 4.32 -21 5 C-23.64 5.33 -26.28 5.66 -29 6 C-28 4 -28 4 -25.5859375 2.9296875 C-16.72842135 0.02028439 -9.22192503 -0.45918299 0 0 Z " fill="#E1A725" transform="translate(261,234)"/>
<path d="M0 0 C5.54050113 0.56825653 10.03715966 2.62886517 15 5 C12.01386614 5.75929472 9.02485781 6.4118332 6 7 C4.02 4.69 2.04 2.38 0 0 Z " fill="#D0C5AE" transform="translate(263,113)"/>
<path d="M0 0 C2.43868168 -0.1079859 4.87259133 -0.18726589 7.3125 -0.25 C8.00279297 -0.28351563 8.69308594 -0.31703125 9.40429688 -0.3515625 C12.62556493 -0.41380923 14.48933238 -0.44582094 16.96875 1.71875 C18.12852044 4.28430279 18.31103006 5.94998534 18.1875 8.75 C18.16042969 9.54921875 18.13335937 10.3484375 18.10546875 11.171875 C18.07066406 11.77515625 18.03585937 12.3784375 18 13 C15.81024227 9.71536341 15.00193437 6.79303725 14 3 C9.38 2.34 4.76 1.68 0 1 C0 0.67 0 0.34 0 0 Z " fill="#A86D44" transform="translate(244,332)"/>
<path d="M0 0 C1.33817623 4.01452868 0.26420242 5.74959755 -1.1875 9.6875 C-1.41655029 10.31092285 -1.64560059 10.9343457 -1.8815918 11.57666016 C-3.62676296 16.23569249 -5.63843584 20.62673305 -8 25 C-8.33 25 -8.66 25 -9 25 C-9 23.35 -9 21.7 -9 20 C-8.34 20 -7.68 20 -7 20 C-6.87882812 19.40832031 -6.75765625 18.81664062 -6.6328125 18.20703125 C-5.73255357 13.96196415 -4.79543379 9.97560339 -3 6 C-2.34 6 -1.68 6 -1 6 C-0.67 4.02 -0.34 2.04 0 0 Z " fill="#A07623" transform="translate(354,325)"/>
<path d="M0 0 C1.65 0 3.3 0 5 0 C4.5247412 1.64696604 4.04468109 3.29254728 3.5625 4.9375 C3.29566406 5.85402344 3.02882813 6.77054687 2.75390625 7.71484375 C2 10 2 10 1 11 C-0.52519276 10.91062197 -2.04681929 10.75462854 -3.5625 10.5625 C-4.38878906 10.46066406 -5.21507812 10.35882813 -6.06640625 10.25390625 C-6.70449219 10.17011719 -7.34257812 10.08632813 -8 10 C-8 9.67 -8 9.34 -8 9 C-4.535 8.505 -4.535 8.505 -1 8 C-0.40267181 5.23735711 0 2.83967231 0 0 Z " fill="#DDC3AA" transform="translate(300,353)"/>
<path d="M0 0 C0.66 0 1.32 0 2 0 C1.125 7.75 1.125 7.75 0 10 C-0.2307231 13.22646114 -0.39522303 16.44576922 -0.51757812 19.67773438 C-0.60903076 21.4567469 -0.79731996 23.23020624 -1 25 C-1.66 25.33 -2.32 25.66 -3 26 C-2.22095672 8.14350797 -2.22095672 8.14350797 0 0 Z " fill="#A47424" transform="translate(148,226)"/>
<path d="M0 0 C0.33 0 0.66 0 1 0 C-0.07951366 8.63610929 -1.29908386 15.15890063 -7 22 C-7.66 22 -8.32 22 -9 22 C-8.7215625 21.46117187 -8.443125 20.92234375 -8.15625 20.3671875 C-6.83288419 17.65786425 -5.6612233 14.90768753 -4.5 12.125 C-4.0771875 11.11695313 -3.654375 10.10890625 -3.21875 9.0703125 C-2.03045368 6.07671985 -0.98806644 3.06483573 0 0 Z " fill="#F08506" transform="translate(282,282)"/>
<path d="M0 0 C0.66 0 1.32 0 2 0 C1.39816251 2.02045442 0.72693904 4.02111039 0 6 C-0.99 6.495 -0.99 6.495 -2 7 C-2.65555119 9.52733235 -2.65555119 9.52733235 -3 12 C-4.65 12.33 -6.3 12.66 -8 13 C-8.33 11.68 -8.66 10.36 -9 9 C-6.525 9.495 -6.525 9.495 -4 10 C-3.67 7.36 -3.34 4.72 -3 2 C-2.01 2 -1.02 2 0 2 C0 1.34 0 0.68 0 0 Z " fill="#9E7528" transform="translate(201,151)"/>
<path d="M0 0 C1.90389849 2.85584773 2.69462177 4.9311762 3.625 8.1875 C3.88539063 9.08855469 4.14578125 9.98960937 4.4140625 10.91796875 C4.60742188 11.60503906 4.80078125 12.29210937 5 13 C1.70319035 12.34215037 -0.84117922 11.10579427 -3.75 9.4375 C-4.54921875 8.98246094 -5.3484375 8.52742187 -6.171875 8.05859375 C-7.07679688 7.53458984 -7.07679688 7.53458984 -8 7 C-7.34 6.67 -6.68 6.34 -6 6 C-3.64018187 6.93578995 -1.30368736 7.93347808 1 9 C0.67 6.03 0.34 3.06 0 0 Z " fill="#9E7B2A" transform="translate(214,144)"/>
<path d="M0 0 C-0.33 0.99 -0.66 1.98 -1 3 C-1.721875 2.79375 -2.44375 2.5875 -3.1875 2.375 C-6.49211606 1.93438453 -7.99055726 2.68819163 -11 4 C-14.11257569 4 -16.10765685 3.82638376 -19 3 C-6.51480638 -1.77676538 -6.51480638 -1.77676538 0 0 Z " fill="#A4771A" transform="translate(176,386)"/>
<path d="M0 0 C0.33 0 0.66 0 1 0 C1.08132187 2.56314499 1.14064175 5.12368418 1.1875 7.6875 C1.22520508 8.7693457 1.22520508 8.7693457 1.26367188 9.87304688 C1.32672457 14.47589338 0.77816458 17.30307233 -2 21 C-4.9375 20.625 -4.9375 20.625 -8 20 C-8.33 19.34 -8.66 18.68 -9 18 C-7.35 18.33 -5.7 18.66 -4 19 C-4 18.01 -4 17.02 -4 16 C-3.01 15.67 -2.02 15.34 -1 15 C-0.67 10.05 -0.34 5.1 0 0 Z " fill="#D6874B" transform="translate(300,330)"/>
<path d="M0 0 C0.99 0.33 1.98 0.66 3 1 C3 3.31 3 5.62 3 8 C1.35 8 -0.3 8 -2 8 C-2.33 6.02 -2.66 4.04 -3 2 C-2.01 1.34 -1.02 0.68 0 0 Z " fill="#F37B14" transform="translate(296,353)"/>
<path d="M0 0 C3.46868241 3.46868241 4.84443628 6.62794739 6.75 11.0625 C7.07871094 11.79533203 7.40742188 12.52816406 7.74609375 13.28320312 C8.56358346 15.16135987 9.28925744 17.07890468 10 19 C9.67 19.66 9.34 20.32 9 21 C5 15.375 5 15.375 5 12 C4.34 12 3.68 12 3 12 C2.01 8.04 1.02 4.08 0 0 Z " fill="#9C7624" transform="translate(332,164)"/>
<path d="M0 0 C1.32 0.66 2.64 1.32 4 2 C4 3.32 4 4.64 4 6 C4.66 6.33 5.32 6.66 6 7 C4.68 6.67 3.36 6.34 2 6 C1.67 6.66 1.34 7.32 1 8 C-0.65 7.67 -2.3 7.34 -4 7 C-3.43628586 3.73045798 -2.50037734 2.17424117 0 0 Z " fill="#AE6B0D" transform="translate(179,133)"/>
<path d="M0 0 C2.93797442 0.30847234 5.87532282 0.62160223 8.8125 0.9375 C10.06256836 1.06801758 10.06256836 1.06801758 11.33789062 1.20117188 C12.14033203 1.28818359 12.94277344 1.37519531 13.76953125 1.46484375 C14.50792236 1.543396 15.24631348 1.62194824 16.00708008 1.70288086 C18 2 18 2 21 3 C21 3.66 21 4.32 21 5 C16.5638418 5.17062147 13.8972528 4.97771038 10 3 C8.26186612 2.57336714 6.51011335 2.19923141 4.75 1.875 C3.85796875 1.70742188 2.9659375 1.53984375 2.046875 1.3671875 C1.03367187 1.18542969 1.03367187 1.18542969 0 1 C0 0.67 0 0.34 0 0 Z " fill="#A37721" transform="translate(317,383)"/>
<path d="M0 0 C0.33 0 0.66 0 1 0 C1.02903577 3.10414702 1.0468107 6.20825909 1.0625 9.3125 C1.07087891 10.19357422 1.07925781 11.07464844 1.08789062 11.98242188 C1.09111328 12.82998047 1.09433594 13.67753906 1.09765625 14.55078125 C1.10289307 15.33106689 1.10812988 16.11135254 1.11352539 16.9152832 C1 19 1 19 0 22 C-1.65 22 -3.3 22 -5 22 C-3.68 21.67 -2.36 21.34 -1 21 C-1 20.01 -1 19.02 -1 18 C-1.99 18 -2.98 18 -4 18 C-4 17.01 -4 16.02 -4 15 C-3.01 15 -2.02 15 -1 15 C-0.67 10.05 -0.34 5.1 0 0 Z " fill="#EB7E21" transform="translate(272,356)"/>
<path d="M0 0 C6.10819022 3.05409511 10.3536679 7.02782124 15 12 C11.18692647 12 9.25171122 10.96457553 6 9 C4.3125 6.4375 4.3125 6.4375 3 4 C2.01 3.34 1.02 2.68 0 2 C0 1.34 0 0.68 0 0 Z " fill="#D9C9A9" transform="translate(278,119)"/>
<path d="M0 0 C-1.67632568 2.03009571 -2.63199964 2.9157202 -5.234375 3.51171875 C-6.06453125 3.56972656 -6.8946875 3.62773437 -7.75 3.6875 C-9.07257813 3.7803125 -9.07257813 3.7803125 -10.421875 3.875 C-11.27265625 3.91625 -12.1234375 3.9575 -13 4 C-13.70640625 4.04125 -14.4128125 4.0825 -15.140625 4.125 C-17 4.1875 -17 4.1875 -20 4 C-20.66 3.34 -21.32 2.68 -22 2 C-21.10796875 1.93941406 -20.2159375 1.87882812 -19.296875 1.81640625 C-17.54117188 1.69072266 -17.54117188 1.69072266 -15.75 1.5625 C-14.58984375 1.48128906 -13.4296875 1.40007812 -12.234375 1.31640625 C-8.00526971 0.90268943 -4.28340091 -0.11898336 0 0 Z " fill="#EF8105" transform="translate(251,321)"/>
<path d="M0 0 C1.13665504 3.40996511 0.91583208 3.86305848 -0.43359375 7.01171875 C-0.75263672 7.76904297 -1.07167969 8.52636719 -1.40039062 9.30664062 C-1.74263672 10.09232422 -2.08488281 10.87800781 -2.4375 11.6875 C-2.77587891 12.48478516 -3.11425781 13.28207031 -3.46289062 14.10351562 C-4.3000701 16.07265607 -5.1489353 18.03682084 -6 20 C-7.403212 15.02017998 -6.49939357 11.47259903 -4 7 C-2.67794034 4.65980245 -1.34321418 2.32823792 0 0 Z " fill="#D7C9AD" transform="translate(339,326)"/>
<path d="M0 0 C1.04940487 3.14821462 0.98606526 3.9349491 0.22265625 7.01171875 C0.03896484 7.76904297 -0.14472656 8.52636719 -0.33398438 9.30664062 C-0.53314453 10.09232422 -0.73230469 10.87800781 -0.9375 11.6875 C-1.13279297 12.48478516 -1.32808594 13.28207031 -1.52929688 14.10351562 C-2.01228382 16.07080389 -2.5051963 18.03565054 -3 20 C-3.33 20 -3.66 20 -4 20 C-4.24404762 6.08928571 -4.24404762 6.08928571 0 0 Z " fill="#A27321" transform="translate(164,222)"/>
<path d="M0 0 C0.99 0.66 1.98 1.32 3 2 C2.20335937 2.01417969 1.40671875 2.02835937 0.5859375 2.04296875 C-6.35922797 2.35558569 -10.21988279 2.82153969 -15 8 C-14.69025617 5.10905762 -13.95829554 3.95308249 -12 1.75 C-8.01372578 -0.57532663 -4.52901261 -0.72939154 0 0 Z " fill="#A0792E" transform="translate(181,99)"/>
<path d="M0 0 C1.1700097 3.91736581 0.69584017 6.97959015 0 11 C-0.66 11 -1.32 11 -2 11 C-2.33 13.97 -2.66 16.94 -3 20 C-3.33 20 -3.66 20 -4 20 C-4.5644718 12.66186666 -2.55327104 6.83911885 0 0 Z " fill="#DFA52D" transform="translate(209,262)"/>
<path d="M0 0 C1.32 0.33 2.64 0.66 4 1 C1.36 6.28 -1.28 11.56 -4 17 C-5.09658936 13.71023192 -4.79953138 12.28696233 -4 9 C-3.34 9 -2.68 9 -2 9 C-0.50178941 5.62902617 0 3.79557881 0 0 Z " fill="#A47320" transform="translate(184,163)"/>
<path d="M0 0 C3.96 1.32 7.92 2.64 12 4 C12 4.66 12 5.32 12 6 C3 6 3 6 0 5 C0 3.35 0 1.7 0 0 Z " fill="#AD8229" transform="translate(202,374)"/>
<path d="M0 0 C0.66 0 1.32 0 2 0 C2 0.66 2 1.32 2 2 C2.66 2 3.32 2 4 2 C4.33 2.99 4.66 3.98 5 5 C5.66 5 6.32 5 7 5 C7 6.65 7 8.3 7 10 C7.66 10 8.32 10 9 10 C9.33 11.65 9.66 13.3 10 15 C5.06087179 10.76646153 2.67865488 5.87024368 0 0 Z " fill="#9F7621" transform="translate(157,347)"/>
<path d="M0 0 C1.74867484 2.62301226 3.23671878 5.20651868 4.6875 8 C5.37392578 9.299375 5.37392578 9.299375 6.07421875 10.625 C7 13 7 13 6 16 C3 12.25 3 12.25 3 10 C2.34 10 1.68 10 1 10 C0.67 6.7 0.34 3.4 0 0 Z " fill="#9E7822" transform="translate(166,331)"/>
<path d="M0 0 C2.71743027 2.71743027 3.50932886 5.86942046 4.6875 9.4375 C4.92533203 10.11876953 5.16316406 10.80003906 5.40820312 11.50195312 C7.12211809 16.63364573 7.12211809 16.63364573 6 20 C5.65066406 19.15695313 5.30132812 18.31390625 4.94140625 17.4453125 C4.48636719 16.34960938 4.03132813 15.25390625 3.5625 14.125 C3.11003906 13.03445312 2.65757812 11.94390625 2.19140625 10.8203125 C1.50456537 9.19441376 0.78934113 7.57868226 0 6 C-0.039992 4.00039988 -0.04346799 1.99952758 0 0 Z " fill="#A07024" transform="translate(344,190)"/>
<path d="M0 0 C1.22419163 3.93795909 0.48320272 6.16112237 -1 10 C-1.66 10 -2.32 10 -3 10 C-3.99 12.97 -4.98 15.94 -6 19 C-7.12642186 15.62073443 -6.96344705 15.27071722 -5.56640625 12.20703125 C-5.0878418 11.1387207 -5.0878418 11.1387207 -4.59960938 10.04882812 C-4.25736328 9.31083984 -3.91511719 8.57285156 -3.5625 7.8125 C-3.22412109 7.06291016 -2.88574219 6.31332031 -2.53710938 5.54101562 C-1.7000589 3.69007302 -0.85114596 1.84450334 0 0 Z " fill="#9C7726" transform="translate(165,176)"/>
<path d="M0 0 C0.99 0.33 1.98 0.66 3 1 C3.99 0.67 4.98 0.34 6 0 C6.12375 0.928125 6.12375 0.928125 6.25 1.875 C6.81258459 4.18437567 6.81258459 4.18437567 9.0625 5.25 C9.701875 5.4975 10.34125 5.745 11 6 C6.03083364 5.48594831 1.70973649 4.76615118 -3 3 C-2.01 2.01 -1.02 1.02 0 0 Z " fill="#7A6864" transform="translate(233,339)"/>
<path d="M0 0 C2.25065096 0.95682755 4.50052949 1.91540444 6.75 2.875 C7.38421875 3.14441406 8.0184375 3.41382813 8.671875 3.69140625 C11.83015042 5.04025304 14.95262304 6.41474835 18 8 C10.64406383 8.81732624 5.79481977 6.58360744 0 2 C0 1.34 0 0.68 0 0 Z " fill="#9E6848" transform="translate(226,324)"/>
<path d="M0 0 C0.66 0 1.32 0 2 0 C3.8597711 2.59240819 5.57205423 5.14410847 7 8 C7.99 7.01 8.98 6.02 10 5 C9.34 6.98 8.68 8.96 8 11 C7.01 11 6.02 11 5 11 C3.35 7.37 1.7 3.74 0 0 Z " fill="#9E792F" transform="translate(227,134)"/>
<path d="M0 0 C0.66 1.32 1.32 2.64 2 4 C-0.9465385 5.80066242 -3.88801935 7.50163895 -7 9 C-5.44499019 5.18315774 -2.96404505 2.80804268 0 0 Z M-8 9 C-8 9.99 -8 10.98 -8 12 C-8.99 12 -9.98 12 -11 12 C-10.01 11.01 -9.02 10.02 -8 9 Z " fill="#695D59" transform="translate(211,234)"/>
<path d="M0 0 C0.66 0 1.32 0 2 0 C2.66 0.99 3.32 1.98 4 3 C4.66 3 5.32 3 6 3 C6 6.63 6 10.26 6 14 C3.74402173 11.74402173 3.03425808 9.95396133 1.875 7 C1.52179688 6.113125 1.16859375 5.22625 0.8046875 4.3125 C0 2 0 2 0 0 Z " fill="#A87B22" transform="translate(324,176)"/>
<path d="M0 0 C0.66 1.32 1.32 2.64 2 4 C0.35 4 -1.3 4 -3 4 C-3 4.99 -3 5.98 -3 7 C-3.99 7 -4.98 7 -6 7 C-6.66 8.65 -7.32 10.3 -8 12 C-8.33 11.34 -8.66 10.68 -9 10 C-6.69517696 5.1244128 -5.01791571 2.36957131 0 0 Z " fill="#A07823" transform="translate(228,77)"/>
<path d="M0 0 C0.33 0 0.66 0 1 0 C1.2396943 5.63281599 0.38529821 10.54538831 -1 16 C-1.33 16 -1.66 16 -2 16 C-2.05423638 14.08364783 -2.09289963 12.16685075 -2.125 10.25 C-2.14820313 9.18265625 -2.17140625 8.1153125 -2.1953125 7.015625 C-2.00487687 4.07529894 -1.52670104 2.47638122 0 0 Z " fill="#9F761C" transform="translate(358,305)"/>
<path d="M0 0 C1.81912642 3.27442756 2.74146841 6.49270347 3.625 10.125 C4.01558594 11.70667969 4.01558594 11.70667969 4.4140625 13.3203125 C5 16 5 16 5 18 C4.34 18 3.68 18 3 18 C2.86722656 17.43410156 2.73445313 16.86820313 2.59765625 16.28515625 C2.42105469 15.55167969 2.24445313 14.81820312 2.0625 14.0625 C1.88847656 13.33160156 1.71445312 12.60070312 1.53515625 11.84765625 C1.16112431 10.00030102 1.16112431 10.00030102 0 9 C-0.07179964 7.48071962 -0.08392007 5.95832518 -0.0625 4.4375 C-0.05347656 3.61121094 -0.04445313 2.78492188 -0.03515625 1.93359375 C-0.02355469 1.29550781 -0.01195312 0.65742188 0 0 Z " fill="#D1BD99" transform="translate(337,212)"/>
<path d="M0 0 C0.33 0 0.66 0 1 0 C1.56131481 6.45512034 -0.36536213 11.15439723 -3 17 C-3.99 17 -4.98 17 -6 17 C-5.566875 16.05125 -5.13375 15.1025 -4.6875 14.125 C-2.71169813 9.54302138 -1.36003515 4.79388277 0 0 Z " fill="#9D7626" transform="translate(216,94)"/>
<path d="M0 0 C5.625 -0.25 5.625 -0.25 9 2 C9 2.66 9 3.32 9 4 C7.35 4.66 5.7 5.32 4 6 C3.67 5.01 3.34 4.02 3 3 C2.01 2.67 1.02 2.34 0 2 C0 1.34 0 0.68 0 0 Z " fill="#A67424" transform="translate(230,76)"/>
<path d="M0 0 C0 3 0 3 -1.828125 5.078125 C-2.62734375 5.79484375 -3.4265625 6.5115625 -4.25 7.25 C-5.43335938 8.34054687 -5.43335938 8.34054687 -6.640625 9.453125 C-9 11 -9 11 -11.296875 10.734375 C-11.85890625 10.49203125 -12.4209375 10.2496875 -13 10 C-12.22914063 9.44570313 -11.45828125 8.89140625 -10.6640625 8.3203125 C-9.66117187 7.59585937 -8.65828125 6.87140625 -7.625 6.125 C-6.62726563 5.40570313 -5.62953125 4.68640625 -4.6015625 3.9453125 C-2.00530106 2.1005342 -2.00530106 2.1005342 0 0 Z " fill="#A5812F" transform="translate(318,363)"/>
<path d="M0 0 C0.67578125 1.67578125 0.67578125 1.67578125 1 4 C-0.14453125 6.54296875 -0.14453125 6.54296875 -1.8125 9.1875 C-2.62654297 10.50814453 -2.62654297 10.50814453 -3.45703125 11.85546875 C-5 14 -5 14 -7 15 C-5.45454854 9.52067211 -2.84456788 4.88570819 0 0 Z " fill="#FEA70E" transform="translate(278,290)"/>
<path d="M0 0 C2.64752004 2.57784846 4.94432065 4.91648098 7 8 C4.69 8 2.38 8 0 8 C0 5.36 0 2.72 0 0 Z " fill="#D4CBB4" transform="translate(296,135)"/>
<path d="M0 0 C0.33 0.66 0.66 1.32 1 2 C-0.9160139 6.04491824 -3.33879986 8.46532298 -7 11 C-7.66 11 -8.32 11 -9 11 C-7.49770909 7.17598678 -5.1988409 5.4791017 -2 3 C-1.34 2.01 -0.68 1.02 0 0 Z " fill="#F18308" transform="translate(272,304)"/>
<path d="M0 0 C2.73625437 1.47336774 3.38708421 2.44772966 4.4375 5.3125 C3.1175 4.9825 1.7975 4.6525 0.4375 4.3125 C0.4375 3.6525 0.4375 2.9925 0.4375 2.3125 C-2.2025 2.3125 -4.8425 2.3125 -7.5625 2.3125 C-4.97077907 -0.27922093 -3.58638655 -0.96220127 0 0 Z " fill="#A17827" transform="translate(242.5625,81.6875)"/>
<path d="M0 0 C1.98 0 3.96 0 6 0 C6.2475 0.78375 6.495 1.5675 6.75 2.375 C8.15389099 5.32317108 9.00675737 5.9024777 12 7 C9.15382151 7.517487 7.50716808 7.34894002 5.109375 5.69921875 C3.3339267 4.18720079 1.61626937 2.68147909 0 1 C0 0.67 0 0.34 0 0 Z " fill="#EBAA22" transform="translate(216,315)"/>
<path d="M0 0 C0.66 1.32 1.32 2.64 2 4 C0.68 5.65 -0.64 7.3 -2 9 C-2.99 8.67 -3.98 8.34 -5 8 C-3.35 5.36 -1.7 2.72 0 0 Z " fill="#A7731A" transform="translate(179,151)"/>
<path d="M0 0 C0.66 0.33 1.32 0.66 2 1 C1.9071875 2.175625 1.9071875 2.175625 1.8125 3.375 C1.874375 4.24125 1.93625 5.1075 2 6 C2.99 6.66 3.98 7.32 5 8 C2.625 8.125 2.625 8.125 0 8 C-0.66 7.34 -1.32 6.68 -2 6 C-1.44444444 1.44444444 -1.44444444 1.44444444 0 0 Z " fill="#977824" transform="translate(155,390)"/>
<path d="M0 0 C0.33 0 0.66 0 1 0 C2.512545 5.16044765 3.33500455 8.65998179 2 14 C1.34 14 0.68 14 0 14 C0 9.38 0 4.76 0 0 Z " fill="#DA7E2F" transform="translate(262,336)"/>
<path d="M0 0 C0.66 0.33 1.32 0.66 2 1 C-1.17320782 4.53586014 -3.16743695 6.58578031 -8 7 C-5.42215154 4.35247996 -3.08351902 2.05567935 0 0 Z " fill="#E3A82A" transform="translate(229,240)"/>
<path d="M0 0 C0.33 0 0.66 0 1 0 C1 2.66666667 1 5.33333333 1 8 C0.01 8 -0.98 8 -2 8 C-2 8.66 -2 9.32 -2 10 C-2.66 10 -3.32 10 -4 10 C-2.8905928 6.51329166 -1.73662334 3.22515763 0 0 Z " fill="#A47820" transform="translate(173,160)"/>
<path d="M0 0 C2.97 0 5.94 0 9 0 C5.68987756 3.31012244 4.46840411 3.50351065 0 4 C0 2.68 0 1.36 0 0 Z " fill="#AD6715" transform="translate(229,115)"/>
<path d="M0 0 C1.10176129 3.35216734 0.89303058 5.75121078 0.1875 9.1875 C0.01605469 10.06792969 -0.15539062 10.94835937 -0.33203125 11.85546875 C-0.55246094 12.56316406 -0.77289063 13.27085937 -1 14 C-1.99 14.495 -1.99 14.495 -3 15 C-2.35812082 9.86496656 -1.31727753 5.0056546 0 0 Z " fill="#AC8837" transform="translate(343,314)"/>
<path d="M0 0 C0.99 0 1.98 0 3 0 C3.79953138 3.28696233 4.09658936 4.71023192 3 8 C1.68 7.67 0.36 7.34 -1 7 C-0.34 7 0.32 7 1 7 C0.34 5.02 -0.32 3.04 -1 1 C-0.67 0.67 -0.34 0.34 0 0 Z " fill="#B0690D" transform="translate(353,317)"/>
<path d="M0 0 C1.1055189 0.93590504 2.20935453 1.87379858 3.3125 2.8125 C3.92738281 3.33457031 4.54226563 3.85664063 5.17578125 4.39453125 C6.85424679 5.87172469 8.43882034 7.40039131 10 9 C9.67 9.66 9.34 10.32 9 11 C8.60167969 10.57847656 8.20335937 10.15695313 7.79296875 9.72265625 C7.26316406 9.17480469 6.73335938 8.62695312 6.1875 8.0625 C5.66542969 7.51722656 5.14335937 6.97195312 4.60546875 6.41015625 C2.94187802 4.76480908 2.94187802 4.76480908 0 4 C0 2.68 0 1.36 0 0 Z " fill="#D77B33" transform="translate(284,244)"/>
<path d="M0 0 C0.99 0 1.98 0 3 0 C3.0825 0.5775 3.165 1.155 3.25 1.75 C4.20531013 4.6159304 5.78469173 5.9990764 8 8 C4.06326356 6.68775452 1.77280706 5.08089673 -1 2 C-0.67 1.34 -0.34 0.68 0 0 Z " fill="#A7781C" transform="translate(276,114)"/>
<path d="M0 0 C0.33 1.32 0.66 2.64 1 4 C-0.1875 5.8125 -0.1875 5.8125 -2 7 C-3.32 6.67 -4.64 6.34 -6 6 C-4.02 4.02 -2.04 2.04 0 0 Z " fill="#A77E27" transform="translate(325,356)"/>
<path d="M0 0 C1.5625 1.25 1.5625 1.25 3 3 C2.6875 5.1875 2.6875 5.1875 2 7 C1.34 7 0.68 7 0 7 C0 5.68 0 4.36 0 3 C-0.66 2.67 -1.32 2.34 -2 2 C-1.34 1.34 -0.68 0.68 0 0 Z M2 0 C2.99 0 3.98 0 5 0 C4.67 1.32 4.34 2.64 4 4 C4 3.01 4 2.02 4 1 C3.34 0.67 2.68 0.34 2 0 Z " fill="#7C6661" transform="translate(305,306)"/>
<path d="M0 0 C1.65 1.65 3.3 3.3 5 5 C4.67 5.99 4.34 6.98 4 8 C1.01284458 6.00856305 0.21258505 5.23356015 -1 2 C-0.67 1.34 -0.34 0.68 0 0 Z " fill="#A57413" transform="translate(339,182)"/>
<path d="M0 0 C1.32 0.33 2.64 0.66 4 1 C4 1.66 4 2.32 4 3 C4.99 3.33 5.98 3.66 7 4 C7 4.66 7 5.32 7 6 C7.99 6 8.98 6 10 6 C9.67 6.99 9.34 7.98 9 9 C8.01 8.34 7.02 7.68 6 7 C6 6.34 6 5.68 6 5 C5.01 4.67 4.02 4.34 3 4 C3 3.34 3 2.68 3 2 C2.01 2 1.02 2 0 2 C0 1.34 0 0.68 0 0 Z " fill="#AE741A" transform="translate(218,124)"/>
<path d="M0 0 C1.32 0 2.64 0 4 0 C4.45375 0.969375 4.9075 1.93875 5.375 2.9375 C6.65786221 6.07079582 6.65786221 6.07079582 9 7 C9 7.66 9 8.32 9 9 C4.44984107 7.48328036 2.49942736 3.83108947 0 0 Z " fill="#9F752C" transform="translate(167,363)"/>
<path d="M0 0 C3.0916909 2.52956528 3.90931332 5.22454612 5 9 C3 9 3 9 1.375 7.875 C-0.55651159 5.24112056 -0.21205536 3.18083044 0 0 Z " fill="#E17D2A" transform="translate(294,255)"/>
<path d="M0 0 C1.32 0.33 2.64 0.66 4 1 C2 3 2 3 -1 4 C-1.33 4.99 -1.66 5.98 -2 7 C-2.66 6.67 -3.32 6.34 -4 6 C-3.67 4.68 -3.34 3.36 -3 2 C-2.01 2 -1.02 2 0 2 C0 1.34 0 0.68 0 0 Z " fill="#A87110" transform="translate(171,168)"/>
<path d="M0 0 C1.32 0.66 2.64 1.32 4 2 C4 3.98 4 5.96 4 8 C1.525 7.01 1.525 7.01 -1 6 C-0.01 5.67 0.98 5.34 2 5 C1.34 3.35 0.68 1.7 0 0 Z " fill="#99791F" transform="translate(248,136)"/>
<path d="M0 0 C0.5534764 2.07553648 1 3.84365964 1 6 C1.66 6.33 2.32 6.66 3 7 C2.01 7 1.02 7 0 7 C-2.1875 4.5 -2.1875 4.5 -4 2 C-2.68 1.34 -1.36 0.68 0 0 Z " fill="#AA7D27" transform="translate(301,134)"/>
<path d="M0 0 C0.33 1.32 0.66 2.64 1 4 C-1.31 4 -3.62 4 -6 4 C-4 1 -4 1 -1.875 0.3125 C-1.25625 0.209375 -0.6375 0.10625 0 0 Z " fill="#CCCFCD" transform="translate(275,379)"/>
<path d="M0 0 C2.83374881 3.20336822 3.5205537 5.78087253 4 10 C1.4375 7.8125 1.4375 7.8125 -1 5 C-0.8125 2.1875 -0.8125 2.1875 0 0 Z " fill="#A16F1E" transform="translate(162,320)"/>
<path d="M0 0 C2.31 1.98 4.62 3.96 7 6 C4.50907189 7.24546405 3.58919267 6.7767578 1 6 C0.67 4.02 0.34 2.04 0 0 Z " fill="#9B7141" transform="translate(218,317)"/>
<path d="M0 0 C0.99 0 1.98 0 3 0 C3 0.66 3 1.32 3 2 C4.32 2.33 5.64 2.66 7 3 C5.02 3.66 3.04 4.32 1 5 C1 4.01 1 3.02 1 2 C0.34 1.67 -0.32 1.34 -1 1 C-0.67 0.67 -0.34 0.34 0 0 Z " fill="#B5680E" transform="translate(209,403)"/>
<path d="M0 0 C1.98 0.99 1.98 0.99 4 2 C3.67 3.65 3.34 5.3 3 7 C2.01 7 1.02 7 0 7 C0.2784375 6.1028125 0.2784375 6.1028125 0.5625 5.1875 C1.22093687 2.83591238 1.22093687 2.83591238 0 0 Z " fill="#9B7C34" transform="translate(347,390)"/>
<path d="M0 0 C0.66 0 1.32 0 2 0 C2 1.65 2 3.3 2 5 C-0.9375 4.625 -0.9375 4.625 -4 4 C-4.33 3.34 -4.66 2.68 -5 2 C-2.525 2.495 -2.525 2.495 0 3 C0 2.01 0 1.02 0 0 Z " fill="#DC862B" transform="translate(296,346)"/>
<path d="M0 0 C1.65 1.65 3.3 3.3 5 5 C4.34 6.32 3.68 7.64 3 9 C0 3.375 0 3.375 0 0 Z " fill="#A2751D" transform="translate(153,337)"/>
<path d="M0 0 C3.37462715 0.54723683 5.08235 1.0549 8 3 C8 3.66 8 4.32 8 5 C4.62496331 3.8141763 2.35277269 2.72426311 0 0 Z " fill="#D6812A" transform="translate(224,322)"/>
<path d="M0 0 C2.64 1.65 5.28 3.3 8 5 C6 6 6 6 2.875 5.0625 C1.92625 4.711875 0.9775 4.36125 0 4 C0 2.68 0 1.36 0 0 Z " fill="#9F7521" transform="translate(239,122)"/>
<path d="M0 0 C3 1 3 1 4.25 3.3125 C5.04631835 6.16597407 4.8214856 7.24802325 4 10 C3.32845067 8.71086513 2.66291141 7.41859796 2 6.125 C1.62875 5.40570313 1.2575 4.68640625 0.875 3.9453125 C0 2 0 2 0 0 Z " fill="#A57C26" transform="translate(319,166)"/>
<path d="M0 0 C0.66 1.32 1.32 2.64 2 4 C0.68 5.32 -0.64 6.64 -2 8 C-2.6875 6.25 -2.6875 6.25 -3 4 C-1.5625 1.75 -1.5625 1.75 0 0 Z " fill="#A87414" transform="translate(184,143)"/>
<path d="M0 0 C-0.33 1.32 -0.66 2.64 -1 4 C-2.65 3.67 -4.3 3.34 -6 3 C-6 2.34 -6 1.68 -6 1 C-4 0 -4 0 0 0 Z " fill="#B07203" transform="translate(181,137)"/>
<path d="M0 0 C1.32 0 2.64 0 4 0 C4 0.66 4 1.32 4 2 C4.66 2 5.32 2 6 2 C5.67 3.32 5.34 4.64 5 6 C3.35 4.02 1.7 2.04 0 0 Z " fill="#A5781F" transform="translate(286,124)"/>
<path d="M0 0 C2.64 1.65 5.28 3.3 8 5 C5.16032769 5 2.76264289 4.59732819 0 4 C0 2.68 0 1.36 0 0 Z " fill="#A17729" transform="translate(283,106)"/>
<path d="M0 0 C3.875 1.75 3.875 1.75 5 4 C3.02 4.33 1.04 4.66 -1 5 C-0.67 3.35 -0.34 1.7 0 0 Z " fill="#B36306" transform="translate(179,102)"/>
<path d="M0 0 C0.33 0.66 0.66 1.32 1 2 C3.02463255 2.65213292 3.02463255 2.65213292 5 3 C5 3.99 5 4.98 5 6 C3.68 5.67 2.36 5.34 1 5 C0.67 3.35 0.34 1.7 0 0 Z " fill="#B46C07" transform="translate(229,76)"/>
<path d="" fill="#FFFFFF" transform="translate(0,0)"/>
<path d="" fill="#FFFFFF" transform="translate(0,0)"/>
<path d="" fill="#FFFFFF" transform="translate(0,0)"/>
<path d="" fill="#FFFFFF" transform="translate(0,0)"/>
<path d="" fill="#FFFFFF" transform="translate(0,0)"/>
<path d="" fill="#FFFFFF" transform="translate(0,0)"/>
<path d="" fill="#FFFFFF" transform="translate(0,0)"/>
<path d="" fill="#FFFFFF" transform="translate(0,0)"/>
<path d="" fill="#FFFFFF" transform="translate(0,0)"/>
<path d="" fill="#FFFFFF" transform="translate(0,0)"/>
<path d="" fill="#FFFFFF" transform="translate(0,0)"/>
<path d="" fill="#FFFFFF" transform="translate(0,0)"/>
<path d="" fill="#FFFFFF" transform="translate(0,0)"/>
<path d="" fill="#FFFFFF" transform="translate(0,0)"/>
<path d="" fill="#FFFFFF" transform="translate(0,0)"/>
<path d="" fill="#FFFFFF" transform="translate(0,0)"/>
<path d="" fill="#FFFFFF" transform="translate(0,0)"/>
<path d="" fill="#FFFFFF" transform="translate(0,0)"/>
<path d="" fill="#FFFFFF" transform="translate(0,0)"/>
<path d="" fill="#FFFFFF" transform="translate(0,0)"/>
<path d="" fill="#FFFFFF" transform="translate(0,0)"/>
<path d="" fill="#FFFFFF" transform="translate(0,0)"/>
<path d="" fill="#FFFFFF" transform="translate(0,0)"/>
<path d="" fill="#FFFFFF" transform="translate(0,0)"/>
<path d="" fill="#FFFFFF" transform="translate(0,0)"/>
<path d="" fill="#FFFFFF" transform="translate(0,0)"/>
<path d="" fill="#FFFFFF" transform="translate(0,0)"/>
<path d="" fill="#FFFFFF" transform="translate(0,0)"/>
<path d="" fill="#FFFFFF" transform="translate(0,0)"/>
<path d="" fill="#FFFFFF" transform="translate(0,0)"/>
<path d="" fill="#FFFFFF" transform="translate(0,0)"/>
<path d="" fill="#FFFFFF" transform="translate(0,0)"/>
<path d="" fill="#FFFFFF" transform="translate(0,0)"/>
<path d="" fill="#FFFFFF" transform="translate(0,0)"/>
<path d="" fill="#FFFFFF" transform="translate(0,0)"/>
<path d="" fill="#FFFFFF" transform="translate(0,0)"/>
<path d="" fill="#FFFFFF" transform="translate(0,0)"/>
<path d="" fill="#FFFFFF" transform="translate(0,0)"/>
<path d="" fill="#FFFFFF" transform="translate(0,0)"/>
<path d="" fill="#FFFFFF" transform="translate(0,0)"/>
<path d="" fill="#FFFFFF" transform="translate(0,0)"/>
<path d="" fill="#FFFFFF" transform="translate(0,0)"/>
<path d="" fill="#FFFFFF" transform="translate(0,0)"/>
<path d="" fill="#FFFFFF" transform="translate(0,0)"/>
<path d="" fill="#FFFFFF" transform="translate(0,0)"/>
<path d="" fill="#FFFFFF" transform="translate(0,0)"/>
<path d="" fill="#FFFFFF" transform="translate(0,0)"/>
<path d="" fill="#FFFFFF" transform="translate(0,0)"/>
<path d="" fill="#808080" transform="translate(0,0)"/>
<path d="" fill="#FFFFFF" transform="translate(0,0)"/>
<path d="" fill="#FFFFFF" transform="translate(0,0)"/>
<path d="" fill="#FFFFFF" transform="translate(0,0)"/>
<path d="" fill="#FFFFFF" transform="translate(0,0)"/>
<path d="" fill="#FFFFFF" transform="translate(0,0)"/>
<path d="" fill="#FFFFFF" transform="translate(0,0)"/>
<path d="" fill="#FFFFFF" transform="translate(0,0)"/>
<path d="" fill="#FFFFFF" transform="translate(0,0)"/>
<path d="" fill="#FFFFFF" transform="translate(0,0)"/>
<path d="" fill="#FFFFFF" transform="translate(0,0)"/>
<path d="" fill="#FFFFFF" transform="translate(0,0)"/>
</svg>
